<?xml version="1.0" standalone="no"?>
<!DOCTYPE svg PUBLIC "-//W3C//DTD SVG 1.1//EN"
  "http://www.w3.org/Graphics/SVG/1.1/DTD/svg11.dtd">
<svg width="282mm" height="181.99999999999997mm" viewBox="-376 -310.99999999999994 282 181.99999999999997" xmlns="http://www.w3.org/2000/svg" version="1.1">
	<title>svgOutput</title>
	<desc>made with tinkercad</desc>
<path d="M -126.11100006103516 -309.99999999999994 L -95 -309.99999999999994 L -95 -303.99999999999994 L -95 -284.28601074218744 L -101 -284.28601074218744 L -101 -262.1440124511718 L -101 -258.5710144042968 L -95 -258.5710144042968 L -95 -232.8569946289062 L -101 -232.8569946289062 L -101 -207.1430053710937 L -95 -207.1430053710937 L -95 -196.60800170898432 L -95 -181.42900085449216 L -98.30400085449219 -181.42900085449216 L -101 -181.42900085449216 L -101 -180.22399902343747 L -101 -163.8399963378906 L -101 -160.6636810302734 L -101 -157.38021850585935 L -101 -155.71400451660153 L -95 -155.71400451660153 L -95 -131.0720062255859 L -95 -129.99999999999997 L -126.11100006103516 -129.99999999999997 L -126.11100006103516 -131.0720062255859 L -126.11100006103516 -135.99999999999997 L -131.07200622558594 -135.99999999999997 L -157.2220001220703 -135.99999999999997 L -157.2220001220703 -131.0720062255859 L -157.2220001220703 -129.99999999999997 L -188.33299255371094 -129.99999999999997 L -188.33299255371094 -131.0720062255859 L -188.33299255371094 -135.99999999999997 L -196.60800170898438 -135.99999999999997 L -219.44400024414062 -135.99999999999997 L -219.44400024414062 -131.0720062255859 L -219.44400024414062 -129.99999999999997 L -250.55599975585938 -129.99999999999997 L -250.55599975585938 -131.0720062255859 L -250.55599975585938 -135.99999999999997 L -262.1440124511719 -135.99999999999997 L -281.6669921875 -135.99999999999997 L -281.6669921875 -131.0720062255859 L -281.6669921875 -129.99999999999997 L -312.77801513671875 -129.99999999999997 L -312.77801513671875 -131.0720062255859 L -312.77801513671875 -135.99999999999997 L -343.8890075683594 -135.99999999999997 L -343.8890075683594 -131.0720062255859 L -343.8890075683594 -129.99999999999997 L -375 -129.99999999999997 L -375 -131.0720062255859 L -375 -135.99999999999997 L -375 -155.71400451660153 L -369 -155.71400451660153 L -369 -173.78999328613278 L -369 -181.42900085449216 L -375 -181.42900085449216 L -375 -196.60800170898432 L -375 -207.1430053710937 L -369 -207.1430053710937 L -369 -232.8569946289062 L -375 -232.8569946289062 L -375 -258.5710144042968 L -369 -258.5710144042968 L -369 -262.1440124511718 L -369 -284.28601074218744 L -375 -284.28601074218744 L -375 -303.99999999999994 L -375 -309.99999999999994 L -343.8890075683594 -309.99999999999994 L -343.8890075683594 -303.99999999999994 L -312.77801513671875 -303.99999999999994 L -312.77801513671875 -309.99999999999994 L -281.6669921875 -309.99999999999994 L -281.6669921875 -303.99999999999994 L -262.1440124511719 -303.99999999999994 L -250.55599975585938 -303.99999999999994 L -250.55599975585938 -309.99999999999994 L -219.44400024414062 -309.99999999999994 L -219.44400024414062 -303.99999999999994 L -188.33299255371094 -303.99999999999994 L -188.33299255371094 -309.99999999999994 L -157.2220001220703 -309.99999999999994 L -157.2220001220703 -303.99999999999994 L -131.07200622558594 -303.99999999999994 L -126.11100006103516 -303.99999999999994 L -126.11100006103516 -309.99999999999994 M -178.2100067138672 -266.20999145507807 L -262.1440124511719 -266.20999145507807 L -331.7900085449219 -266.20999145507807 L -332.6960144042969 -266.0910034179687 L -333.5400085449219 -265.74099731445307 L -334.2650146484375 -265.1849975585937 L -334.8210144042969 -264.45999145507807 L -335.1709899902344 -263.61599731445307 L -335.2900085449219 -262.70999145507807 L -335.2900085449219 -262.1440124511718 L -335.2900085449219 -258.5710144042968 L -335.2900085449219 -232.8569946289062 L -335.2900085449219 -207.1430053710937 L -335.2900085449219 -196.60800170898432 L -335.2900085449219 -177.28999328613278 L -335.1709899902344 -176.38400268554685 L -334.8210144042969 -175.53999328613278 L -334.2650146484375 -174.81500244140622 L -333.5400085449219 -174.25900268554685 L -332.6960144042969 -173.90899658203122 L -331.7900085449219 -173.78999328613278 L -262.1440124511719 -173.78999328613278 L -196.60800170898438 -173.78999328613278 L -178.2100067138672 -173.78999328613278 L -177.3040008544922 -173.90899658203122 L -176.4600067138672 -174.25900268554685 L -175.73500061035156 -174.81500244140622 L -175.1790008544922 -175.53999328613278 L -174.82899475097656 -176.38400268554685 L -174.7100067138672 -177.28999328613278 L -174.7100067138672 -196.60800170898432 L -174.7100067138672 -229.37600708007807 L -174.7100067138672 -262.1440124511718 L -174.7100067138672 -262.70999145507807 L -174.82899475097656 -263.61599731445307 L -175.1790008544922 -264.45999145507807 L -175.73500061035156 -265.1849975585937 L -176.4600067138672 -265.74099731445307 L -177.3040008544922 -266.0910034179687 L -178.2100067138672 -266.20999145507807 M -130.73800659179688 -198.60200500488276 L -131.07200622558594 -198.64672851562494 L -133.1649932861328 -198.92700195312494 L -135.61199951171875 -198.9920043945312 L -138.05299377441406 -198.79600524902338 L -140.45899963378906 -198.34300231933588 L -142.802001953125 -197.636001586914 L -145.05799865722656 -196.68400573730463 L -145.1952667236328 -196.60800170898432 L -147.1999969482422 -195.49800109863276 L -149.2030029296875 -194.0910034179687 L -151.04600524902344 -192.47799682617182 L -152.70599365234375 -190.67999267578122 L -154.16600036621094 -188.71400451660153 L -155.40899658203125 -186.60499572753903 L -156.42100524902344 -184.3760070800781 L -157.19000244140625 -182.05099487304685 L -157.70700073242188 -179.65800476074216 L -157.9669952392578 -177.22399902343747 L -157.9669952392578 -174.77600097656247 L -157.70700073242188 -172.34199523925778 L -157.19000244140625 -169.9490051269531 L -156.42100524902344 -167.62399291992185 L -155.40899658203125 -165.3950042724609 L -154.49252319335938 -163.8399963378906 L -154.16600036621094 -163.2859954833984 L -152.70599365234375 -161.32000732421872 L -151.04600524902344 -159.52099609374997 L -149.2030029296875 -157.90899658203122 L -147.1999969482422 -156.50199890136716 L -145.05799865722656 -155.31599426269528 L -142.802001953125 -154.3639984130859 L -140.45899963378906 -153.65699768066403 L -138.05299377441406 -153.20300292968747 L -135.61199951171875 -153.00799560546872 L -133.1649932861328 -153.07299804687497 L -131.07200622558594 -153.35327148437497 L -130.73800659179688 -153.39799499511716 L -128.36000061035156 -153.97900390624997 L -126.05699920654297 -154.80999755859372 L -123.8550033569336 -155.88000488281247 L -121.77999877929688 -157.17900085449216 L -119.85399627685547 -158.69099426269528 L -118.0999984741211 -160.39900207519528 L -116.53800201416016 -162.28399658203122 L -115.50524139404297 -163.8399963378906 L -115.18399810791016 -164.3240051269531 L -114.05500030517578 -166.4960021972656 L -113.16400146484375 -168.77600097656247 L -112.5199966430664 -171.13800048828122 L -112.12999725341797 -173.55499267578122 L -112 -175.99999999999997 L -112.12999725341797 -178.44500732421872 L -112.41705322265625 -180.22399902343747 L -112.5199966430664 -180.86199951171872 L -112.67459106445312 -181.42900085449216 L -113.16400146484375 -183.22399902343747 L -114.05500030517578 -185.50399780273435 L -115.18399810791016 -187.67599487304685 L -116.53800201416016 -189.71600341796872 L -118.0999984741211 -191.60099792480466 L -119.85399627685547 -193.30900573730463 L -121.77999877929688 -194.82099914550776 L -123.8550033569336 -196.11999511718744 L -124.8592758178711 -196.60800170898432 L -126.05699920654297 -197.1900024414062 L -128.36000061035156 -198.02099609374994 L -130.73800659179688 -198.60200500488276 M -151.22500610351562 -219.302993774414 L -151.13900756835938 -219.94999694824213 L -151.22500610351562 -220.59700012207026 L -151.46739196777344 -221.18400573730463 L -151.4739990234375 -221.19999694824213 L -151.8719940185547 -221.71800231933588 L -152.38900756835938 -222.115005493164 L -152.99200439453125 -222.365005493164 L -153.63900756835938 -222.44999694824213 L -154.28599548339844 -222.365005493164 L -154.88900756835938 -222.115005493164 L -155.40699768066406 -221.71800231933588 L -155.8040008544922 -221.19999694824213 L -155.81063842773438 -221.18400573730463 L -156.0540008544922 -220.59700012207026 L -156.13900756835938 -219.94999694824213 L -156.0540008544922 -219.302993774414 L -155.8040008544922 -218.69999694824213 L -155.40699768066406 -218.18200683593744 L -154.88900756835938 -217.78500366210932 L -154.28599548339844 -217.53500366210932 L -153.63900756835938 -217.44999694824213 L -152.99200439453125 -217.53500366210932 L -152.38900756835938 -217.78500366210932 L -151.8719940185547 -218.18200683593744 L -151.4739990234375 -218.69999694824213 L -151.22500610351562 -219.302993774414 z" fill="none" stroke="rgb(255,0,0)" stroke-width="0.001mm" />
</svg>