<?xml version="1.0" standalone="no"?>
<!DOCTYPE svg PUBLIC "-//W3C//DTD SVG 1.1//EN"
  "http://www.w3.org/Graphics/SVG/1.1/DTD/svg11.dtd">
<svg width="282mm" height="181.99999999999997mm" viewBox="27 -85.99999999999999 282 181.99999999999997" xmlns="http://www.w3.org/2000/svg" version="1.1">
	<title>svgOutput</title>
	<desc>made with tinkercad</desc>
<path d="M 308 -7.8569998741149885 L 302 -7.8569998741149885 L 302 -2.7565610408782955 L 302 1.1102230246251565e-16 L 302 17.857000350952145 L 308 17.857000350952145 L 308 32.76800155639648 L 308 43.570999145507805 L 302 43.570999145507805 L 302 65.53600311279295 L 302 69.28600311279295 L 308 69.28600311279295 L 308 94.99999999999999 L 302 94.99999999999999 L 276.8890075683594 94.99999999999999 L 276.8890075683594 88.99999999999999 L 264 88.99999999999999 L 262.6630554199219 88.99999999999999 L 262.1440124511719 88.99999999999999 L 245.7779998779297 88.99999999999999 L 245.7779998779297 94.99999999999999 L 214.66700744628906 94.99999999999999 L 214.66700744628906 88.99999999999999 L 183.55599975585938 88.99999999999999 L 183.55599975585938 94.99999999999999 L 152.44400024414062 94.99999999999999 L 152.44400024414062 88.99999999999999 L 131.07200622558594 88.99999999999999 L 121.33300018310547 88.99999999999999 L 121.33300018310547 94.99999999999999 L 90.22200012207031 94.99999999999999 L 90.22200012207031 88.99999999999999 L 65.53600311279297 88.99999999999999 L 59.111000061035156 88.99999999999999 L 59.111000061035156 94.99999999999999 L 28 94.99999999999999 L 28 88.99999999999999 L 28 69.28600311279295 L 34 69.28600311279295 L 34 65.53600311279295 L 34 43.570999145507805 L 28 43.570999145507805 L 28 17.857000350952145 L 34 17.857000350952145 L 34 1.1102230246251565e-16 L 34 -7.8569998741149885 L 28 -7.8569998741149885 L 28 -33.570999145507805 L 34 -33.570999145507805 L 34 -59.28599929809569 L 28 -59.28599929809569 L 28 -65.53600311279295 L 28 -78.99999999999999 L 28 -84.99999999999999 L 59.111000061035156 -84.99999999999999 L 59.111000061035156 -78.99999999999999 L 64.97830200195312 -78.99999999999999 L 65.53600311279297 -78.99999999999999 L 90.22200012207031 -78.99999999999999 L 90.22200012207031 -84.99999999999999 L 121.33300018310547 -84.99999999999999 L 121.33300018310547 -78.99999999999999 L 131.07200622558594 -78.99999999999999 L 152.44400024414062 -78.99999999999999 L 152.44400024414062 -84.99999999999999 L 183.55599975585938 -84.99999999999999 L 183.55599975585938 -78.99999999999999 L 214.66700744628906 -78.99999999999999 L 214.66700744628906 -84.99999999999999 L 245.7779998779297 -84.99999999999999 L 245.7779998779297 -78.99999999999999 L 262.1440124511719 -78.99999999999999 L 276.8890075683594 -78.99999999999999 L 276.8890075683594 -84.99999999999999 L 302 -84.99999999999999 L 308 -84.99999999999999 L 308 -59.28599929809569 L 302 -59.28599929809569 L 302 -33.570999145507805 L 308 -33.570999145507805 L 308 -7.8569998741149885 M 275.4490051269531 4.611999988555907 L 275.29901123046875 4.249999999999999 L 275.18115234375 4.09600019454956 L 275.0610046386719 3.938999891281127 L 274.75 3.700999975204467 L 274.38800048828125 3.5510001182556143 L 274 3.499999999999999 L 273.61199951171875 3.5510001182556143 L 273.25 3.700999975204467 L 272.9389953613281 3.938999891281127 L 272.81884765625 4.09600019454956 L 272.70098876953125 4.249999999999999 L 272.5509948730469 4.611999988555907 L 272.5 4.999999999999999 L 272.5509948730469 5.388000011444091 L 272.70098876953125 5.749999999999999 L 272.9389953613281 6.060999870300291 L 273.25 6.298999786376951 L 273.61199951171875 6.448999881744383 L 274 6.499999999999998 L 274.38800048828125 6.448999881744383 L 274.4320068359375 6.4307680130004865 L 274.75 6.298999786376951 L 275.0610046386719 6.060999870300291 L 275.29901123046875 5.749999999999999 L 275.4490051269531 5.388000011444091 L 275.5 4.999999999999999 L 275.4490051269531 4.611999988555907 M 262.0899963378906 -67.87799835205077 L 261.0710144042969 -69.0709991455078 L 259.87799072265625 -70.08999633789061 L 258.5400085449219 -70.91000366210936 L 257.0899963378906 -71.51100158691405 L 255.56399536132812 -71.87699890136717 L 254 -71.99999999999999 L 245.7779998779297 -71.99999999999999 L 131.07200622558594 -71.99999999999999 L 65.53600311279297 -71.99999999999999 L 50 -71.99999999999999 L 48.43600082397461 -71.87699890136717 L 46.90999984741211 -71.51100158691405 L 45.459999084472656 -70.91000366210936 L 44.12200164794922 -70.08999633789061 L 42.92900085449219 -69.0709991455078 L 41.90999984741211 -67.87799835205077 L 41.09000015258789 -66.54000091552733 L 40.673858642578125 -65.53600311279295 L 40.48899841308594 -65.08999633789061 L 40.12300109863281 -63.563999176025376 L 40 -61.999999999999986 L 40 1.1102230246251565e-16 L 40 65.53600311279295 L 40 69.28600311279295 L 40 71.99999999999999 L 40.12300109863281 73.56400299072264 L 40.48899841308594 75.08999633789061 L 41.09000015258789 76.54000091552733 L 41.90999984741211 77.87799835205077 L 42.92900085449219 79.0709991455078 L 44.12200164794922 80.08999633789061 L 45.459999084472656 80.91000366210936 L 46.90999984741211 81.51100158691405 L 48.43600082397461 81.87699890136717 L 50 81.99999999999999 L 65.53600311279297 81.99999999999999 L 131.07200622558594 81.99999999999999 L 254 81.99999999999999 L 255.56399536132812 81.87699890136717 L 257.0899963378906 81.51100158691405 L 258.5400085449219 80.91000366210936 L 259.87799072265625 80.08999633789061 L 261.0710144042969 79.0709991455078 L 262.0899963378906 77.87799835205077 L 262.1440124511719 77.78988647460936 L 262.9100036621094 76.54000091552733 L 263.510986328125 75.08999633789061 L 263.87701416015625 73.56400299072264 L 264 71.99999999999999 L 264 65.53600311279295 L 264 43.570999145507805 L 264 32.76800155639648 L 264 16.38400077819824 L 264 8.19200038909912 L 264 1.1102230246251565e-16 L 264 -61.999999999999986 L 263.87701416015625 -63.563999176025376 L 263.510986328125 -65.08999633789061 L 262.9100036621094 -66.54000091552733 L 262.1440124511719 -67.78988647460936 L 262.0899963378906 -67.87799835205077 z" fill="none" stroke="rgb(255,0,0)" stroke-width="0.001mm" />
</svg>