<?xml version="1.0" standalone="no"?>
<!DOCTYPE svg PUBLIC "-//W3C//DTD SVG 1.1//EN"
  "http://www.w3.org/Graphics/SVG/1.1/DTD/svg11.dtd">
<svg width="226mm" height="155.99999999999994mm" viewBox="-290 335.99999999999994 226 155.99999999999994" xmlns="http://www.w3.org/2000/svg" version="1.1">
	<title>svgOutput</title>
	<desc>made with tinkercad</desc>
<path d="M -65.12300109863281 345.4360046386718 L -65 346.99999999999994 L -65 393.21600341796864 L -65 458.75201416015614 L -65 480.9999999999999 L -65.12300109863281 482.563995361328 L -65.48899841308594 484.0899963378905 L -65.53600311279297 484.203399658203 L -66.08999633789062 485.54000854492176 L -66.91000366210938 486.87799072265614 L -67.92900085449219 488.07101440429676 L -69.12200164794922 489.0899963378905 L -70.45999908447266 489.91000366210926 L -71.91000366210938 490.5109863281249 L -73.43599700927734 490.87701416015614 L -75 490.9999999999999 L -81.91999816894531 490.9999999999999 L -98.30400085449219 490.9999999999999 L -114.68800354003906 490.9999999999999 L -131.07200622558594 490.9999999999999 L -262.1440124511719 490.9999999999999 L -279 490.9999999999999 L -280.5639953613281 490.87701416015614 L -282.0899963378906 490.5109863281249 L -283.5400085449219 489.91000366210926 L -284.87799072265625 489.0899963378905 L -286.0710144042969 488.07101440429676 L -287.0899963378906 486.87799072265614 L -287.9100036621094 485.54000854492176 L -288.510986328125 484.0899963378905 L -288.87701416015625 482.563995361328 L -289 480.9999999999999 L -289 393.21600341796864 L -289 346.99999999999994 L -288.87701416015625 345.4360046386718 L -288.510986328125 343.9100036621093 L -287.9100036621094 342.45999145507807 L -287.0899963378906 341.1220092773437 L -286.0710144042969 339.92898559570307 L -284.87799072265625 338.9100036621093 L -283.5400085449219 338.08999633789057 L -282.0899963378906 337.48901367187494 L -280.5639953613281 337.1229858398437 L -279 336.99999999999994 L -262.1440124511719 336.99999999999994 L -131.07200622558594 336.99999999999994 L -114.68800354003906 336.99999999999994 L -98.30400085449219 336.99999999999994 L -81.91999816894531 336.99999999999994 L -75 336.99999999999994 L -73.43599700927734 337.1229858398437 L -71.91000366210938 337.48901367187494 L -70.45999908447266 338.08999633789057 L -69.12200164794922 338.9100036621093 L -67.92900085449219 339.92898559570307 L -66.91000366210938 341.1220092773437 L -66.08999633789062 342.45999145507807 L -65.53600311279297 343.7966003417968 L -65.48899841308594 343.9100036621093 L -65.12300109863281 345.4360046386718 M -78 352.49999999999994 L -81.91999816894531 352.49999999999994 L -98.30400085449219 352.49999999999994 L -106.49600219726562 352.49999999999994 L -113 352.49999999999994 L -113.38800048828125 352.5509948730468 L -113.75 352.7009887695312 L -114.06099700927734 352.93899536132807 L -114.29900360107422 353.24999999999994 L -114.4489974975586 353.6119995117187 L -114.5 353.99999999999994 L -114.4489974975586 354.3880004882812 L -114.29900360107422 354.74999999999994 L -114.06099700927734 355.0610046386718 L -113.75 355.2990112304687 L -113.38800048828125 355.44900512695307 L -113 355.49999999999994 L -106.49600219726562 355.49999999999994 L -98.30400085449219 355.49999999999994 L -81.91999816894531 355.49999999999994 L -78 355.49999999999994 L -77.61199951171875 355.44900512695307 L -77.25 355.2990112304687 L -76.93900299072266 355.0610046386718 L -76.70099639892578 354.74999999999994 L -76.5510025024414 354.3880004882812 L -76.5 353.99999999999994 L -76.5510025024414 353.6119995117187 L -76.70099639892578 353.24999999999994 L -76.93900299072266 352.93899536132807 L -77.25 352.7009887695312 L -77.61199951171875 352.5509948730468 L -78 352.49999999999994 M -81.91999816894531 358.49999999999994 L -98.30400085449219 358.49999999999994 L -106.49600219726562 358.49999999999994 L -113 358.49999999999994 L -113.38800048828125 358.5509948730468 L -113.75 358.7009887695312 L -114.06099700927734 358.93899536132807 L -114.29900360107422 359.24999999999994 L -114.4489974975586 359.6119995117187 L -114.5 359.99999999999994 L -114.4489974975586 360.3880004882812 L -114.42414093017578 360.44799804687494 L -114.29900360107422 360.74999999999994 L -114.06099700927734 361.0610046386718 L -113.75 361.2990112304687 L -113.38800048828125 361.44900512695307 L -113 361.49999999999994 L -106.49600219726562 361.49999999999994 L -98.30400085449219 361.49999999999994 L -81.91999816894531 361.49999999999994 L -78 361.49999999999994 L -77.61199951171875 361.44900512695307 L -77.25 361.2990112304687 L -76.93900299072266 361.0610046386718 L -76.70099639892578 360.74999999999994 L -76.57585906982422 360.44799804687494 L -76.5510025024414 360.3880004882812 L -76.5 359.99999999999994 L -76.5510025024414 359.6119995117187 L -76.70099639892578 359.24999999999994 L -76.93900299072266 358.93899536132807 L -77.25 358.7009887695312 L -77.61199951171875 358.5509948730468 L -78 358.49999999999994 L -81.91999816894531 358.49999999999994 M -76.93900299072266 364.93899536132807 L -77.25 364.7009887695312 L -77.61199951171875 364.5509948730468 L -77.66525268554688 364.5440063476562 L -78 364.49999999999994 L -79.5707778930664 364.49999999999994 L -81.91999816894531 364.49999999999994 L -98.30400085449219 364.49999999999994 L -106.49600219726562 364.49999999999994 L -109.56718444824219 364.49999999999994 L -111.4292221069336 364.49999999999994 L -112.74513244628906 364.49999999999994 L -113 364.49999999999994 L -113.33474731445312 364.5440063476562 L -113.38800048828125 364.5509948730468 L -113.75 364.7009887695312 L -114.06099700927734 364.93899536132807 L -114.29900360107422 365.24999999999994 L -114.4489974975586 365.6119995117187 L -114.5 365.99999999999994 L -114.4489974975586 366.3880004882812 L -114.29900360107422 366.74999999999994 L -114.06099700927734 367.0610046386718 L -113.75 367.2990112304687 L -113.38800048828125 367.44900512695307 L -113 367.49999999999994 L -106.49600219726562 367.49999999999994 L -98.30400085449219 367.49999999999994 L -81.91999816894531 367.49999999999994 L -78 367.49999999999994 L -77.61199951171875 367.44900512695307 L -77.25 367.2990112304687 L -76.93900299072266 367.0610046386718 L -76.70099639892578 366.74999999999994 L -76.5510025024414 366.3880004882812 L -76.5 365.99999999999994 L -76.5510025024414 365.6119995117187 L -76.70099639892578 365.24999999999994 L -76.93900299072266 364.93899536132807 M -78 370.49999999999994 L -81.91999816894531 370.49999999999994 L -98.30400085449219 370.49999999999994 L -106.49600219726562 370.49999999999994 L -113 370.49999999999994 L -113.38800048828125 370.5509948730468 L -113.75 370.7009887695312 L -114.06099700927734 370.93899536132807 L -114.29900360107422 371.24999999999994 L -114.4489974975586 371.6119995117187 L -114.5 371.99999999999994 L -114.4489974975586 372.3880004882812 L -114.30480194091797 372.73599243164057 L -114.29900360107422 372.74999999999994 L -114.06099700927734 373.0610046386718 L -113.75 373.2990112304687 L -113.38800048828125 373.44900512695307 L -113 373.49999999999994 L -106.49600219726562 373.49999999999994 L -98.30400085449219 373.49999999999994 L -81.91999816894531 373.49999999999994 L -78 373.49999999999994 L -77.61199951171875 373.44900512695307 L -77.25 373.2990112304687 L -76.93900299072266 373.0610046386718 L -76.70099639892578 372.74999999999994 L -76.69519805908203 372.73599243164057 L -76.5510025024414 372.3880004882812 L -76.5 371.99999999999994 L -76.5510025024414 371.6119995117187 L -76.70099639892578 371.24999999999994 L -76.93900299072266 370.93899536132807 L -77.25 370.7009887695312 L -77.61199951171875 370.5509948730468 L -78 370.49999999999994 M -78.25486755371094 376.49999999999994 L -81.91999816894531 376.49999999999994 L -98.30400085449219 376.49999999999994 L -106.49600219726562 376.49999999999994 L -109.56718444824219 376.49999999999994 L -111.4292221069336 376.49999999999994 L -112.74513244628906 376.49999999999994 L -113 376.49999999999994 L -113.38800048828125 376.5509948730468 L -113.75 376.7009887695312 L -113.92118072509766 376.8320007324218 L -114.06099700927734 376.93899536132807 L -114.29900360107422 377.24999999999994 L -114.4489974975586 377.6119995117187 L -114.5 377.99999999999994 L -114.4489974975586 378.3880004882812 L -114.29900360107422 378.74999999999994 L -114.06099700927734 379.0610046386718 L -113.75 379.2990112304687 L -113.38800048828125 379.44900512695307 L -113 379.49999999999994 L -106.49600219726562 379.49999999999994 L -98.30400085449219 379.49999999999994 L -81.91999816894531 379.49999999999994 L -78 379.49999999999994 L -77.61199951171875 379.44900512695307 L -77.25 379.2990112304687 L -76.93900299072266 379.0610046386718 L -76.70099639892578 378.74999999999994 L -76.5510025024414 378.3880004882812 L -76.5 377.99999999999994 L -76.5510025024414 377.6119995117187 L -76.70099639892578 377.24999999999994 L -76.93900299072266 376.93899536132807 L -77.07881927490234 376.8320007324218 L -77.25 376.7009887695312 L -77.61199951171875 376.5509948730468 L -78 376.49999999999994 L -78.25486755371094 376.49999999999994 M -78 382.49999999999994 L -81.91999816894531 382.49999999999994 L -98.30400085449219 382.49999999999994 L -106.49600219726562 382.49999999999994 L -113 382.49999999999994 L -113.38800048828125 382.5509948730468 L -113.75 382.7009887695312 L -114.06099700927734 382.93899536132807 L -114.29900360107422 383.24999999999994 L -114.4489974975586 383.6119995117187 L -114.5 383.9999999999999 L -114.4489974975586 384.38800048828114 L -114.29900360107422 384.7499999999999 L -114.08931732177734 385.02398681640614 L -114.06099700927734 385.06100463867176 L -113.75 385.29901123046864 L -113.38800048828125 385.449005126953 L -113 385.4999999999999 L -106.49600219726562 385.4999999999999 L -98.30400085449219 385.4999999999999 L -81.91999816894531 385.4999999999999 L -78 385.4999999999999 L -77.61199951171875 385.449005126953 L -77.25 385.29901123046864 L -76.93900299072266 385.06100463867176 L -76.91068267822266 385.02398681640614 L -76.70099639892578 384.7499999999999 L -76.5510025024414 384.38800048828114 L -76.5 383.9999999999999 L -76.5510025024414 383.6119995117187 L -76.70099639892578 383.24999999999994 L -76.93900299072266 382.93899536132807 L -77.25 382.7009887695312 L -77.61199951171875 382.5509948730468 L -78 382.49999999999994 M -78 388.4999999999999 L -81.91999816894531 388.4999999999999 L -98.30400085449219 388.4999999999999 L -106.49600219726562 388.4999999999999 L -109.56718444824219 388.4999999999999 L -111.4292221069336 388.4999999999999 L -113 388.4999999999999 L -113.38800048828125 388.55099487304676 L -113.75 388.70098876953114 L -114.06099700927734 388.938995361328 L -114.19951629638672 389.1199951171874 L -114.29900360107422 389.2499999999999 L -114.4489974975586 389.61199951171864 L -114.5 389.9999999999999 L -114.4489974975586 390.38800048828114 L -114.29900360107422 390.7499999999999 L -114.06099700927734 391.06100463867176 L -113.75 391.29901123046864 L -113.38800048828125 391.449005126953 L -113 391.4999999999999 L -106.49600219726562 391.4999999999999 L -98.30400085449219 391.4999999999999 L -81.91999816894531 391.4999999999999 L -78 391.4999999999999 L -77.61199951171875 391.449005126953 L -77.25 391.29901123046864 L -76.93900299072266 391.06100463867176 L -76.70099639892578 390.7499999999999 L -76.5510025024414 390.38800048828114 L -76.5 389.9999999999999 L -76.5510025024414 389.61199951171864 L -76.70099639892578 389.2499999999999 L -76.80048370361328 389.1199951171874 L -76.93900299072266 388.938995361328 L -77.25 388.70098876953114 L -77.61199951171875 388.55099487304676 L -78 388.4999999999999 M -77.61199951171875 394.55099487304676 L -78 394.4999999999999 L -81.91999816894531 394.4999999999999 L -98.30400085449219 394.4999999999999 L -106.49600219726562 394.4999999999999 L -113 394.4999999999999 L -113.38800048828125 394.55099487304676 L -113.75 394.70098876953114 L -114.06099700927734 394.938995361328 L -114.29900360107422 395.2499999999999 L -114.4489974975586 395.61199951171864 L -114.5 395.9999999999999 L -114.4489974975586 396.38800048828114 L -114.29900360107422 396.7499999999999 L -114.06099700927734 397.06100463867176 L -113.75 397.29901123046864 L -113.7186279296875 397.3120117187499 L -113.38800048828125 397.449005126953 L -113 397.4999999999999 L -106.49600219726562 397.4999999999999 L -98.30400085449219 397.4999999999999 L -81.91999816894531 397.4999999999999 L -78 397.4999999999999 L -77.61199951171875 397.449005126953 L -77.2813720703125 397.3120117187499 L -77.25 397.29901123046864 L -76.93900299072266 397.06100463867176 L -76.70099639892578 396.7499999999999 L -76.5510025024414 396.38800048828114 L -76.5 395.9999999999999 L -76.5510025024414 395.61199951171864 L -76.70099639892578 395.2499999999999 L -76.93900299072266 394.938995361328 L -77.25 394.70098876953114 L -77.61199951171875 394.55099487304676 M -78 400.4999999999999 L -81.91999816894531 400.4999999999999 L -98.30400085449219 400.4999999999999 L -106.49600219726562 400.4999999999999 L -113 400.4999999999999 L -113.38800048828125 400.55099487304676 L -113.75 400.70098876953114 L -114.06099700927734 400.938995361328 L -114.29900360107422 401.2499999999999 L -114.36447143554688 401.407989501953 L -114.4489974975586 401.61199951171864 L -114.5 401.9999999999999 L -114.4489974975586 402.38800048828114 L -114.29900360107422 402.7499999999999 L -114.06099700927734 403.06100463867176 L -113.75 403.29901123046864 L -113.38800048828125 403.449005126953 L -113 403.4999999999999 L -106.49600219726562 403.4999999999999 L -98.30400085449219 403.4999999999999 L -81.91999816894531 403.4999999999999 L -78 403.4999999999999 L -77.61199951171875 403.449005126953 L -77.25 403.29901123046864 L -76.93900299072266 403.06100463867176 L -76.70099639892578 402.7499999999999 L -76.5510025024414 402.38800048828114 L -76.5 401.9999999999999 L -76.5510025024414 401.61199951171864 L -76.63552856445312 401.407989501953 L -76.70099639892578 401.2499999999999 L -76.93900299072266 400.938995361328 L -77.25 400.70098876953114 L -77.61199951171875 400.55099487304676 L -78 400.4999999999999 M -78 406.4999999999999 L -81.91999816894531 406.4999999999999 L -98.30400085449219 406.4999999999999 L -106.49600219726562 406.4999999999999 L -113 406.4999999999999 L -113.38800048828125 406.55099487304676 L -113.75 406.70098876953114 L -114.06099700927734 406.938995361328 L -114.29900360107422 407.2499999999999 L -114.4489974975586 407.61199951171864 L -114.5 407.9999999999999 L -114.4489974975586 408.38800048828114 L -114.29900360107422 408.7499999999999 L -114.06099700927734 409.06100463867176 L -113.75 409.29901123046864 L -113.38800048828125 409.449005126953 L -113 409.4999999999999 L -106.49600219726562 409.4999999999999 L -98.30400085449219 409.4999999999999 L -81.91999816894531 409.4999999999999 L -78 409.4999999999999 L -77.61199951171875 409.449005126953 L -77.25 409.29901123046864 L -76.93900299072266 409.06100463867176 L -76.70099639892578 408.7499999999999 L -76.5510025024414 408.38800048828114 L -76.5 407.9999999999999 L -76.5510025024414 407.61199951171864 L -76.70099639892578 407.2499999999999 L -76.93900299072266 406.938995361328 L -77.25 406.70098876953114 L -77.61199951171875 406.55099487304676 L -78 406.4999999999999 M -77.61199951171875 412.55099487304676 L -78 412.4999999999999 L -81.91999816894531 412.4999999999999 L -98.30400085449219 412.4999999999999 L -113 412.4999999999999 L -113.38800048828125 412.55099487304676 L -113.75 412.70098876953114 L -114.06099700927734 412.938995361328 L -114.29900360107422 413.2499999999999 L -114.4489974975586 413.61199951171864 L -114.5 413.9999999999999 L -114.4489974975586 414.38800048828114 L -114.29900360107422 414.7499999999999 L -114.06099700927734 415.06100463867176 L -113.75 415.29901123046864 L -113.38800048828125 415.449005126953 L -113 415.4999999999999 L -98.30400085449219 415.4999999999999 L -81.91999816894531 415.4999999999999 L -78 415.4999999999999 L -77.61199951171875 415.449005126953 L -77.25 415.29901123046864 L -76.93900299072266 415.06100463867176 L -76.70099639892578 414.7499999999999 L -76.5510025024414 414.38800048828114 L -76.5 413.9999999999999 L -76.5510025024414 413.61199951171864 L -76.70099639892578 413.2499999999999 L -76.93900299072266 412.938995361328 L -77.25 412.70098876953114 L -77.61199951171875 412.55099487304676 M -81.91999816894531 418.4999999999999 L -98.30400085449219 418.4999999999999 L -106.49600219726562 418.4999999999999 L -113 418.4999999999999 L -113.38800048828125 418.55099487304676 L -113.75 418.70098876953114 L -114.06099700927734 418.938995361328 L -114.29900360107422 419.2499999999999 L -114.4489974975586 419.61199951171864 L -114.5 419.9999999999999 L -114.4489974975586 420.38800048828114 L -114.29900360107422 420.7499999999999 L -114.06099700927734 421.06100463867176 L -113.75 421.29901123046864 L -113.38800048828125 421.449005126953 L -113 421.4999999999999 L -106.49600219726562 421.4999999999999 L -98.30400085449219 421.4999999999999 L -81.91999816894531 421.4999999999999 L -78 421.4999999999999 L -77.61199951171875 421.449005126953 L -77.25 421.29901123046864 L -76.93900299072266 421.06100463867176 L -76.70099639892578 420.7499999999999 L -76.5510025024414 420.38800048828114 L -76.5 419.9999999999999 L -76.5510025024414 419.61199951171864 L -76.70099639892578 419.2499999999999 L -76.93900299072266 418.938995361328 L -77.25 418.70098876953114 L -77.61199951171875 418.55099487304676 L -78 418.4999999999999 L -81.91999816894531 418.4999999999999 M -81.91999816894531 424.4999999999999 L -98.30400085449219 424.4999999999999 L -106.49600219726562 424.4999999999999 L -113 424.4999999999999 L -113.38800048828125 424.55099487304676 L -113.75 424.70098876953114 L -114.06099700927734 424.938995361328 L -114.29900360107422 425.2499999999999 L -114.4489974975586 425.61199951171864 L -114.49789428710938 425.9840087890624 L -114.5 425.9999999999999 L -114.4489974975586 426.38800048828114 L -114.29900360107422 426.7499999999999 L -114.06099700927734 427.06100463867176 L -113.75 427.29901123046864 L -113.38800048828125 427.449005126953 L -113 427.4999999999999 L -106.49600219726562 427.4999999999999 L -98.30400085449219 427.4999999999999 L -81.91999816894531 427.4999999999999 L -78 427.4999999999999 L -77.61199951171875 427.449005126953 L -77.25 427.29901123046864 L -76.93900299072266 427.06100463867176 L -76.70099639892578 426.7499999999999 L -76.5510025024414 426.38800048828114 L -76.5 425.9999999999999 L -76.50210571289062 425.9840087890624 L -76.5510025024414 425.61199951171864 L -76.70099639892578 425.2499999999999 L -76.93900299072266 424.938995361328 L -77.25 424.70098876953114 L -77.61199951171875 424.55099487304676 L -78 424.4999999999999 L -81.91999816894531 424.4999999999999 M -78 430.4999999999999 L -81.91999816894531 430.4999999999999 L -98.30400085449219 430.4999999999999 L -106.49600219726562 430.4999999999999 L -113 430.4999999999999 L -113.38800048828125 430.55099487304676 L -113.75 430.70098876953114 L -114.06099700927734 430.938995361328 L -114.29900360107422 431.2499999999999 L -114.4489974975586 431.61199951171864 L -114.5 431.9999999999999 L -114.4489974975586 432.38800048828114 L -114.29900360107422 432.7499999999999 L -114.06099700927734 433.06100463867176 L -113.75 433.29901123046864 L -113.38800048828125 433.449005126953 L -113 433.4999999999999 L -106.49600219726562 433.4999999999999 L -98.30400085449219 433.4999999999999 L -81.91999816894531 433.4999999999999 L -78 433.4999999999999 L -77.61199951171875 433.449005126953 L -77.25 433.29901123046864 L -76.93900299072266 433.06100463867176 L -76.70099639892578 432.7499999999999 L -76.5510025024414 432.38800048828114 L -76.5 431.9999999999999 L -76.5510025024414 431.61199951171864 L -76.70099639892578 431.2499999999999 L -76.93900299072266 430.938995361328 L -77.25 430.70098876953114 L -77.61199951171875 430.55099487304676 L -78 430.4999999999999 M -81.91999816894531 436.4999999999999 L -98.30400085449219 436.4999999999999 L -113 436.4999999999999 L -113.38800048828125 436.55099487304676 L -113.75 436.70098876953114 L -114.06099700927734 436.938995361328 L -114.29900360107422 437.2499999999999 L -114.4489974975586 437.61199951171864 L -114.5 437.9999999999999 L -114.4489974975586 438.38800048828114 L -114.29900360107422 438.7499999999999 L -114.06099700927734 439.06100463867176 L -113.75 439.29901123046864 L -113.38800048828125 439.449005126953 L -113 439.4999999999999 L -98.30400085449219 439.4999999999999 L -81.91999816894531 439.4999999999999 L -78 439.4999999999999 L -77.61199951171875 439.449005126953 L -77.25 439.29901123046864 L -76.93900299072266 439.06100463867176 L -76.70099639892578 438.7499999999999 L -76.5510025024414 438.38800048828114 L -76.5 437.9999999999999 L -76.5510025024414 437.61199951171864 L -76.70099639892578 437.2499999999999 L -76.93900299072266 436.938995361328 L -77.25 436.70098876953114 L -77.61199951171875 436.55099487304676 L -78 436.4999999999999 L -81.91999816894531 436.4999999999999 M -78 442.4999999999999 L -81.91999816894531 442.4999999999999 L -98.30400085449219 442.4999999999999 L -106.49600219726562 442.4999999999999 L -113 442.4999999999999 L -113.38800048828125 442.55099487304676 L -113.75 442.70098876953114 L -114.06099700927734 442.938995361328 L -114.29900360107422 443.2499999999999 L -114.4489974975586 443.61199951171864 L -114.5 443.9999999999999 L -114.4489974975586 444.38800048828114 L -114.29900360107422 444.7499999999999 L -114.06099700927734 445.06100463867176 L -113.75 445.29901123046864 L -113.38800048828125 445.449005126953 L -113 445.4999999999999 L -106.49600219726562 445.4999999999999 L -98.30400085449219 445.4999999999999 L -81.91999816894531 445.4999999999999 L -78 445.4999999999999 L -77.61199951171875 445.449005126953 L -77.25 445.29901123046864 L -76.93900299072266 445.06100463867176 L -76.70099639892578 444.7499999999999 L -76.5510025024414 444.38800048828114 L -76.5 443.9999999999999 L -76.5510025024414 443.61199951171864 L -76.70099639892578 443.2499999999999 L -76.93900299072266 442.938995361328 L -77.25 442.70098876953114 L -77.61199951171875 442.55099487304676 L -78 442.4999999999999 M -78 448.4999999999999 L -81.91999816894531 448.4999999999999 L -98.30400085449219 448.4999999999999 L -106.49600219726562 448.4999999999999 L -113 448.4999999999999 L -113.38800048828125 448.55099487304676 L -113.75 448.70098876953114 L -114.06099700927734 448.938995361328 L -114.29900360107422 449.2499999999999 L -114.4489974975586 449.61199951171864 L -114.5 449.9999999999999 L -114.4489974975586 450.38800048828114 L -114.37773132324219 450.55999755859364 L -114.29900360107422 450.7499999999999 L -114.06099700927734 451.06100463867176 L -113.75 451.29901123046864 L -113.38800048828125 451.449005126953 L -113 451.4999999999999 L -106.49600219726562 451.4999999999999 L -98.30400085449219 451.4999999999999 L -81.91999816894531 451.4999999999999 L -78 451.4999999999999 L -77.61199951171875 451.449005126953 L -77.25 451.29901123046864 L -76.93900299072266 451.06100463867176 L -76.70099639892578 450.7499999999999 L -76.62226867675781 450.55999755859364 L -76.5510025024414 450.38800048828114 L -76.5 449.9999999999999 L -76.5510025024414 449.61199951171864 L -76.70099639892578 449.2499999999999 L -76.93900299072266 448.938995361328 L -77.25 448.70098876953114 L -77.61199951171875 448.55099487304676 L -78 448.4999999999999 M -81.91999816894531 454.4999999999999 L -98.30400085449219 454.4999999999999 L -106.49600219726562 454.4999999999999 L -113 454.4999999999999 L -113.38800048828125 454.55099487304676 L -113.64140319824219 454.6560058593749 L -113.75 454.70098876953114 L -114.06099700927734 454.938995361328 L -114.29900360107422 455.2499999999999 L -114.4489974975586 455.61199951171864 L -114.5 455.9999999999999 L -114.4489974975586 456.38800048828114 L -114.29900360107422 456.7499999999999 L -114.06099700927734 457.06100463867176 L -113.75 457.29901123046864 L -113.38800048828125 457.449005126953 L -113 457.4999999999999 L -106.49600219726562 457.4999999999999 L -98.30400085449219 457.4999999999999 L -81.91999816894531 457.4999999999999 L -78 457.4999999999999 L -77.61199951171875 457.449005126953 L -77.25 457.29901123046864 L -76.93900299072266 457.06100463867176 L -76.70099639892578 456.7499999999999 L -76.5510025024414 456.38800048828114 L -76.5 455.9999999999999 L -76.5510025024414 455.61199951171864 L -76.70099639892578 455.2499999999999 L -76.93900299072266 454.938995361328 L -77.25 454.70098876953114 L -77.35859680175781 454.6560058593749 L -77.61199951171875 454.55099487304676 L -78 454.4999999999999 L -81.91999816894531 454.4999999999999 M -81.91999816894531 460.4999999999999 L -98.30400085449219 460.4999999999999 L -106.49600219726562 460.4999999999999 L -113 460.4999999999999 L -113.38800048828125 460.55099487304676 L -113.75 460.70098876953114 L -114.06099700927734 460.938995361328 L -114.29900360107422 461.2499999999999 L -114.4489974975586 461.61199951171864 L -114.5 461.9999999999999 L -114.4489974975586 462.38800048828114 L -114.29900360107422 462.7499999999999 L -114.22400665283203 462.84799194335926 L -114.06099700927734 463.06100463867176 L -113.75 463.29901123046864 L -113.38800048828125 463.449005126953 L -113 463.4999999999999 L -106.49600219726562 463.4999999999999 L -98.30400085449219 463.4999999999999 L -81.91999816894531 463.4999999999999 L -78 463.4999999999999 L -77.61199951171875 463.449005126953 L -77.25 463.29901123046864 L -76.93900299072266 463.06100463867176 L -76.77599334716797 462.84799194335926 L -76.70099639892578 462.7499999999999 L -76.5510025024414 462.38800048828114 L -76.5 461.9999999999999 L -76.5510025024414 461.61199951171864 L -76.70099639892578 461.2499999999999 L -76.93900299072266 460.938995361328 L -77.25 460.70098876953114 L -77.61199951171875 460.55099487304676 L -78 460.4999999999999 L -81.91999816894531 460.4999999999999 M -81.43281555175781 466.4999999999999 L -81.91999816894531 466.4999999999999 L -98.30400085449219 466.4999999999999 L -106.49600219726562 466.4999999999999 L -113 466.4999999999999 L -113.38800048828125 466.55099487304676 L -113.75 466.70098876953114 L -114.06099700927734 466.938995361328 L -114.06482696533203 466.9440002441405 L -114.29900360107422 467.2499999999999 L -114.4489974975586 467.61199951171864 L -114.5 467.9999999999999 L -114.4489974975586 468.38800048828114 L -114.29900360107422 468.7499999999999 L -114.06099700927734 469.06100463867176 L -113.75 469.29901123046864 L -113.38800048828125 469.449005126953 L -113 469.4999999999999 L -106.49600219726562 469.4999999999999 L -98.30400085449219 469.4999999999999 L -81.91999816894531 469.4999999999999 L -78 469.4999999999999 L -77.61199951171875 469.449005126953 L -77.25 469.29901123046864 L -76.93900299072266 469.06100463867176 L -76.70099639892578 468.7499999999999 L -76.5510025024414 468.38800048828114 L -76.5 467.9999999999999 L -76.5510025024414 467.61199951171864 L -76.70099639892578 467.2499999999999 L -76.93517303466797 466.9440002441405 L -76.93900299072266 466.938995361328 L -77.25 466.70098876953114 L -77.61199951171875 466.55099487304676 L -78 466.4999999999999 L -81.43281555175781 466.4999999999999 M -81.91999816894531 472.4999999999999 L -98.30400085449219 472.4999999999999 L -106.49600219726562 472.4999999999999 L -113 472.4999999999999 L -113.38800048828125 472.55099487304676 L -113.75 472.70098876953114 L -114.06099700927734 472.938995361328 L -114.29900360107422 473.2499999999999 L -114.4489974975586 473.61199951171864 L -114.5 473.9999999999999 L -114.4489974975586 474.38800048828114 L -114.29900360107422 474.7499999999999 L -114.06099700927734 475.06100463867176 L -113.96299743652344 475.1359863281249 L -113.75 475.29901123046864 L -113.38800048828125 475.449005126953 L -113 475.4999999999999 L -98.30400085449219 475.4999999999999 L -81.91999816894531 475.4999999999999 L -78 475.4999999999999 L -77.61199951171875 475.449005126953 L -77.25 475.29901123046864 L -77.03700256347656 475.1359863281249 L -76.93900299072266 475.06100463867176 L -76.70099639892578 474.7499999999999 L -76.5510025024414 474.38800048828114 L -76.5 473.9999999999999 L -76.5510025024414 473.61199951171864 L -76.70099639892578 473.2499999999999 L -76.93900299072266 472.938995361328 L -77.25 472.70098876953114 L -77.61199951171875 472.55099487304676 L -78 472.4999999999999 L -81.91999816894531 472.4999999999999 z" fill="none" stroke="rgb(255,0,0)" stroke-width="0.001mm" />
</svg>