<?xml version="1.0" standalone="no"?>
<!DOCTYPE svg PUBLIC "-//W3C//DTD SVG 1.1//EN"
  "http://www.w3.org/Graphics/SVG/1.1/DTD/svg11.dtd">
<svg width="241mm" height="161.99999999999997mm" viewBox="-284 147.99999999999997 241 161.99999999999997" xmlns="http://www.w3.org/2000/svg" version="1.1">
	<title>svgOutput</title>
	<desc>made with tinkercad</desc>
<path d="M -59 161.99999999999997 L -59 196.60800170898432 L -59 212.9920043945312 L -59 213.99999999999994 L -57.04199981689453 214.12800598144526 L -55.11800003051758 214.511001586914 L -53.2599983215332 215.14199829101557 L -51.5 216.00999450683588 L -49.86899948120117 217.10000610351557 L -49.152000427246094 217.72810363769526 L -48.393001556396484 218.3930053710937 L -47.099998474121094 219.86900329589838 L -46.0099983215332 221.49999999999994 L -45.141998291015625 223.25999450683588 L -44.51100158691406 225.11799621582026 L -44.12799835205078 227.042007446289 L -44 228.99999999999994 L -44.02458190917969 229.37600708007807 L -44.12799835205078 230.95799255371088 L -44.51100158691406 232.88200378417963 L -45.141998291015625 234.740005493164 L -46.0099983215332 236.49999999999994 L -47.099998474121094 238.1309967041015 L -48.393001556396484 239.6069946289062 L -49.152000427246094 240.27189636230463 L -49.86899948120117 240.89999389648432 L -51.5 241.990005493164 L -53.2599983215332 242.85800170898432 L -55.11800003051758 243.48899841308588 L -57.04199981689453 243.87199401855463 L -59 243.99999999999994 L -59 244.26176452636713 L -59 244.80737304687494 L -59 245.6888580322265 L -59 245.75999450683588 L -59 262.1440124511718 L -59 295.99999999999994 L -59.13199996948242 297.85000610351557 L -59.527000427246094 299.66299438476557 L -60.17499923706055 301.3999938964843 L -61.06399917602539 303.0280151367187 L -62.17499923706055 304.5130004882812 L -63.48699951171875 305.8250122070312 L -64.97200012207031 306.9360046386718 L -65.53600311279297 307.2439880371093 L -66.5999984741211 307.8250122070312 L -68.33699798583984 308.4729919433593 L -70.1500015258789 308.8680114746093 L -72 308.99999999999994 L -98.30400085449219 308.99999999999994 L -131.07200622558594 308.99999999999994 L -262.1440124511719 308.99999999999994 L -270 308.99999999999994 L -271.8500061035156 308.8680114746093 L -273.6629943847656 308.4729919433593 L -275.3999938964844 307.8250122070312 L -277.02801513671875 306.9360046386718 L -278.51300048828125 305.8250122070312 L -279.82501220703125 304.5130004882812 L -280.9360046386719 303.0280151367187 L -281.82501220703125 301.3999938964843 L -282.4729919433594 299.66299438476557 L -282.8680114746094 297.85000610351557 L -283 295.99999999999994 L -283 262.1440124511718 L -283 161.99999999999997 L -282.8680114746094 160.14999389648435 L -282.4729919433594 158.33700561523435 L -281.82501220703125 156.6000061035156 L -280.9360046386719 154.97200012207028 L -279.82501220703125 153.48699951171872 L -278.51300048828125 152.17500305175778 L -277.02801513671875 151.0639953613281 L -275.3999938964844 150.17500305175778 L -273.6629943847656 149.52699279785153 L -271.8500061035156 149.13200378417966 L -270 148.99999999999997 L -262.1440124511719 148.99999999999997 L -131.07200622558594 148.99999999999997 L -98.30400085449219 148.99999999999997 L -72 148.99999999999997 L -70.1500015258789 149.13200378417966 L -68.33699798583984 149.52699279785153 L -66.5999984741211 150.17500305175778 L -65.53600311279297 150.7560119628906 L -64.97200012207031 151.0639953613281 L -63.48699951171875 152.17500305175778 L -62.17499923706055 153.48699951171872 L -61.06399917602539 154.97200012207028 L -60.17499923706055 156.6000061035156 L -59.527000427246094 158.33700561523435 L -59.13199996948242 160.14999389648435 L -59 161.99999999999997 M -81.91999816894531 167.49999999999997 L -98.30400085449219 167.49999999999997 L -110 167.49999999999997 L -110.38800048828125 167.55099487304685 L -110.75 167.70100402832028 L -111.06099700927734 167.9389953613281 L -111.29900360107422 168.24999999999997 L -111.4489974975586 168.61199951171872 L -111.5 168.99999999999997 L -111.4489974975586 169.38800048828122 L -111.29900360107422 169.74999999999997 L -111.06099700927734 170.06100463867185 L -110.75 170.29899597167966 L -110.38800048828125 170.4490051269531 L -110 170.49999999999997 L -98.30400085449219 170.49999999999997 L -81.91999816894531 170.49999999999997 L -75 170.49999999999997 L -74.61199951171875 170.4490051269531 L -74.25 170.29899597167966 L -73.93900299072266 170.06100463867185 L -73.70099639892578 169.74999999999997 L -73.5510025024414 169.38800048828122 L -73.5 168.99999999999997 L -73.5510025024414 168.61199951171872 L -73.70099639892578 168.24999999999997 L -73.93900299072266 167.9389953613281 L -74.25 167.70100402832028 L -74.61199951171875 167.55099487304685 L -75 167.49999999999997 L -81.91999816894531 167.49999999999997 M -73.93900299072266 179.9389953613281 L -74.25 179.70100402832028 L -74.61199951171875 179.55099487304685 L -75 179.49999999999997 L -81.91999816894531 179.49999999999997 L -98.30400085449219 179.49999999999997 L -106.49600219726562 179.49999999999997 L -110 179.49999999999997 L -110.38800048828125 179.55099487304685 L -110.75 179.70100402832028 L -111.06099700927734 179.9389953613281 L -111.27910614013672 180.22399902343747 L -111.29900360107422 180.24999999999997 L -111.4489974975586 180.61199951171872 L -111.5 180.99999999999997 L -111.4489974975586 181.38800048828122 L -111.29900360107422 181.74999999999997 L -111.06099700927734 182.06100463867185 L -110.75 182.29899597167966 L -110.38800048828125 182.4490051269531 L -110 182.49999999999997 L -106.49600219726562 182.49999999999997 L -98.30400085449219 182.49999999999997 L -81.91999816894531 182.49999999999997 L -75 182.49999999999997 L -74.61199951171875 182.4490051269531 L -74.25 182.29899597167966 L -73.93900299072266 182.06100463867185 L -73.72799682617188 181.78527832031247 L -73.70099639892578 181.74999999999997 L -73.5510025024414 181.38800048828122 L -73.5 180.99999999999997 L -73.5510025024414 180.61199951171872 L -73.70099639892578 180.24999999999997 L -73.72089385986328 180.22399902343747 L -73.72799682617188 180.21472167968747 L -73.93900299072266 179.9389953613281 M -81.91999816894531 173.49999999999997 L -98.30400085449219 173.49999999999997 L -106.49600219726562 173.49999999999997 L -110 173.49999999999997 L -110.38800048828125 173.55099487304685 L -110.75 173.70100402832028 L -111.06099700927734 173.9389953613281 L -111.29900360107422 174.24999999999997 L -111.4489974975586 174.61199951171872 L -111.5 174.99999999999997 L -111.4489974975586 175.38800048828122 L -111.29900360107422 175.74999999999997 L -111.06099700927734 176.06100463867185 L -110.97344970703125 176.12800598144528 L -110.75 176.29899597167966 L -110.38800048828125 176.4490051269531 L -110 176.49999999999997 L -106.56718444824219 176.49999999999997 L -106.49600219726562 176.49999999999997 L -98.30400085449219 176.49999999999997 L -81.91999816894531 176.49999999999997 L -75 176.49999999999997 L -74.61199951171875 176.4490051269531 L -74.25 176.29899597167966 L -73.93900299072266 176.06100463867185 L -73.72799682617188 175.78527832031247 L -73.70099639892578 175.74999999999997 L -73.5510025024414 175.38800048828122 L -73.5 174.99999999999997 L -73.5510025024414 174.61199951171872 L -73.70099639892578 174.24999999999997 L -73.72799682617188 174.21472167968747 L -73.93900299072266 173.9389953613281 L -74.25 173.70100402832028 L -74.61199951171875 173.55099487304685 L -75 173.49999999999997 L -81.91999816894531 173.49999999999997 M -74.25 188.29899597167966 L -73.93900299072266 188.06100463867185 L -73.72799682617188 187.78527832031247 L -73.70099639892578 187.74999999999997 L -73.5510025024414 187.38800048828122 L -73.5 186.99999999999997 L -73.5510025024414 186.61199951171872 L -73.70099639892578 186.24999999999997 L -73.72799682617188 186.21472167968747 L -73.93900299072266 185.9389953613281 L -74.25 185.70100402832028 L -74.61199951171875 185.55099487304685 L -75 185.49999999999997 L -81.91999816894531 185.49999999999997 L -98.30400085449219 185.49999999999997 L -106.49600219726562 185.49999999999997 L -110 185.49999999999997 L -110.38800048828125 185.55099487304685 L -110.75 185.70100402832028 L -111.06099700927734 185.9389953613281 L -111.29900360107422 186.24999999999997 L -111.4489974975586 186.61199951171872 L -111.5 186.99999999999997 L -111.4489974975586 187.38800048828122 L -111.29900360107422 187.74999999999997 L -111.06099700927734 188.06100463867185 L -110.75 188.29899597167966 L -110.46764373779297 188.4160003662109 L -110.38800048828125 188.4490051269531 L -110 188.49999999999997 L -106.49600219726562 188.49999999999997 L -98.30400085449219 188.49999999999997 L -81.91999816894531 188.49999999999997 L -75 188.49999999999997 L -74.61199951171875 188.4490051269531 L -74.53235626220703 188.4160003662109 L -74.25 188.29899597167966 M -73.93900299072266 191.9389953613281 L -74.25 191.70100402832028 L -74.61199951171875 191.55099487304685 L -75 191.49999999999997 L -81.91999816894531 191.49999999999997 L -98.30400085449219 191.49999999999997 L -106.49600219726562 191.49999999999997 L -110 191.49999999999997 L -110.38800048828125 191.55099487304685 L -110.75 191.70100402832028 L -111.06099700927734 191.9389953613281 L -111.29900360107422 192.24999999999994 L -111.40756225585938 192.51199340820307 L -111.4489974975586 192.6119995117187 L -111.5 192.99999999999994 L -111.4489974975586 193.3880004882812 L -111.29900360107422 193.74999999999994 L -111.06099700927734 194.06100463867182 L -110.75 194.29899597167963 L -110.38800048828125 194.44900512695307 L -110 194.49999999999994 L -106.49600219726562 194.49999999999994 L -98.30400085449219 194.49999999999994 L -81.91999816894531 194.49999999999994 L -75 194.49999999999994 L -74.61199951171875 194.44900512695307 L -74.25 194.29899597167963 L -73.93900299072266 194.06100463867182 L -73.72799682617188 193.78527832031244 L -73.70099639892578 193.74999999999994 L -73.5510025024414 193.3880004882812 L -73.5 192.99999999999994 L -73.5510025024414 192.6119995117187 L -73.70099639892578 192.24999999999994 L -73.72799682617188 192.21472167968744 L -73.93900299072266 191.9389953613281 M -53.5 228.99999999999994 L -53.45057678222656 229.37600708007807 L -53.44900131225586 229.3880004882812 L -53.29899978637695 229.74999999999994 L -53.06100082397461 230.06100463867182 L -52.75 230.29899597167963 L -52.38800048828125 230.44900512695307 L -52 230.49999999999994 L -51.61199951171875 230.44900512695307 L -51.25 230.29899597167963 L -50.93899917602539 230.06100463867182 L -50.70100021362305 229.74999999999994 L -50.55099868774414 229.3880004882812 L -50.54942321777344 229.37600708007807 L -50.5 228.99999999999994 L -50.55099868774414 228.6119995117187 L -50.70100021362305 228.24999999999994 L -50.93899917602539 227.93899536132807 L -51.25 227.70100402832026 L -51.61199951171875 227.55099487304682 L -52 227.49999999999994 L -52.38800048828125 227.55099487304682 L -52.75 227.70100402832026 L -53.06100082397461 227.93899536132807 L -53.29899978637695 228.24999999999994 L -53.44900131225586 228.6119995117187 L -53.5 228.99999999999994 M -75 200.49999999999994 L -74.61199951171875 200.44900512695307 L -74.25 200.29899597167963 L -73.93900299072266 200.06100463867182 L -73.72799682617188 199.78527832031244 L -73.70099639892578 199.74999999999994 L -73.5510025024414 199.3880004882812 L -73.5 198.99999999999994 L -73.5510025024414 198.6119995117187 L -73.70099639892578 198.24999999999994 L -73.72799682617188 198.21472167968744 L -73.93900299072266 197.93899536132807 L -74.25 197.70100402832026 L -74.61199951171875 197.55099487304682 L -75 197.49999999999994 L -81.91999816894531 197.49999999999994 L -98.30400085449219 197.49999999999994 L -106.49600219726562 197.49999999999994 L -110 197.49999999999994 L -110.38800048828125 197.55099487304682 L -110.75 197.70100402832026 L -111.06099700927734 197.93899536132807 L -111.29900360107422 198.24999999999994 L -111.4489974975586 198.6119995117187 L -111.5 198.99999999999994 L -111.4489974975586 199.3880004882812 L -111.29900360107422 199.74999999999994 L -111.06099700927734 200.06100463867182 L -110.75 200.29899597167963 L -110.38800048828125 200.44900512695307 L -110 200.49999999999994 L -106.49600219726562 200.49999999999994 L -98.30400085449219 200.49999999999994 L -81.91999816894531 200.49999999999994 L -75 200.49999999999994 M -74.61199951171875 212.44900512695307 L -74.25 212.29899597167963 L -73.93900299072266 212.06100463867182 L -73.72799682617188 211.78527832031244 L -73.70099639892578 211.74999999999994 L -73.5510025024414 211.3880004882812 L -73.5 210.99999999999994 L -73.5510025024414 210.6119995117187 L -73.70099639892578 210.24999999999994 L -73.72799682617188 210.21472167968744 L -73.93900299072266 209.93899536132807 L -74.25 209.70100402832026 L -74.61199951171875 209.55099487304682 L -75 209.49999999999994 L -76.5707778930664 209.49999999999994 L -78.43281555175781 209.49999999999994 L -81.91999816894531 209.49999999999994 L -98.30400085449219 209.49999999999994 L -106.49600219726562 209.49999999999994 L -110 209.49999999999994 L -110.38800048828125 209.55099487304682 L -110.75 209.70100402832026 L -111.06099700927734 209.93899536132807 L -111.29900360107422 210.24999999999994 L -111.4489974975586 210.6119995117187 L -111.5 210.99999999999994 L -111.4489974975586 211.3880004882812 L -111.29900360107422 211.74999999999994 L -111.06099700927734 212.06100463867182 L -110.75 212.29899597167963 L -110.38800048828125 212.44900512695307 L -110 212.49999999999994 L -106.49600219726562 212.49999999999994 L -98.30400085449219 212.49999999999994 L -81.91999816894531 212.49999999999994 L -75 212.49999999999994 L -74.61199951171875 212.44900512695307 M -81.91999816894531 215.49999999999994 L -98.30400085449219 215.49999999999994 L -110 215.49999999999994 L -110.38800048828125 215.55099487304682 L -110.75 215.70100402832026 L -111.06099700927734 215.93899536132807 L -111.29900360107422 216.24999999999994 L -111.4489974975586 216.6119995117187 L -111.5 216.99999999999994 L -111.4489974975586 217.3880004882812 L -111.29900360107422 217.74999999999994 L -111.06099700927734 218.06100463867182 L -110.75 218.29899597167963 L -110.38800048828125 218.44900512695307 L -110 218.49999999999994 L -98.30400085449219 218.49999999999994 L -81.91999816894531 218.49999999999994 L -75 218.49999999999994 L -74.61199951171875 218.44900512695307 L -74.25 218.29899597167963 L -73.93900299072266 218.06100463867182 L -73.70099639892578 217.74999999999994 L -73.5510025024414 217.3880004882812 L -73.5 216.99999999999994 L -73.5510025024414 216.6119995117187 L -73.70099639892578 216.24999999999994 L -73.93900299072266 215.93899536132807 L -74.25 215.70100402832026 L -74.61199951171875 215.55099487304682 L -75 215.49999999999994 L -81.91999816894531 215.49999999999994 M -73.5510025024414 228.6119995117187 L -73.70099639892578 228.24999999999994 L -73.72799682617188 228.21472167968744 L -73.93900299072266 227.93899536132807 L -74.25 227.70100402832026 L -74.61199951171875 227.55099487304682 L -75 227.49999999999994 L -81.91999816894531 227.49999999999994 L -98.30400085449219 227.49999999999994 L -106.49600219726562 227.49999999999994 L -110 227.49999999999994 L -110.38800048828125 227.55099487304682 L -110.75 227.70100402832026 L -111.06099700927734 227.93899536132807 L -111.29900360107422 228.24999999999994 L -111.4489974975586 228.6119995117187 L -111.5 228.99999999999994 L -111.45057678222656 229.37600708007807 L -111.4489974975586 229.3880004882812 L -111.29900360107422 229.74999999999994 L -111.06099700927734 230.06100463867182 L -110.75 230.29899597167963 L -110.38800048828125 230.44900512695307 L -110 230.49999999999994 L -106.49600219726562 230.49999999999994 L -98.30400085449219 230.49999999999994 L -81.91999816894531 230.49999999999994 L -75 230.49999999999994 L -74.61199951171875 230.44900512695307 L -74.25 230.29899597167963 L -73.93900299072266 230.06100463867182 L -73.72799682617188 229.78527832031244 L -73.70099639892578 229.74999999999994 L -73.5510025024414 229.3880004882812 L -73.54942321777344 229.37600708007807 L -73.5 228.99999999999994 L -73.5510025024414 228.6119995117187 M -74.61199951171875 224.44900512695307 L -74.25 224.29899597167963 L -73.93900299072266 224.06100463867182 L -73.72799682617188 223.78527832031244 L -73.70099639892578 223.74999999999994 L -73.5510025024414 223.3880004882812 L -73.5 222.99999999999994 L -73.5510025024414 222.6119995117187 L -73.70099639892578 222.24999999999994 L -73.72799682617188 222.21472167968744 L -73.93900299072266 221.93899536132807 L -74.25 221.70100402832026 L -74.61199951171875 221.55099487304682 L -75 221.49999999999994 L -81.91999816894531 221.49999999999994 L -98.30400085449219 221.49999999999994 L -106.49600219726562 221.49999999999994 L -110 221.49999999999994 L -110.38800048828125 221.55099487304682 L -110.75 221.70100402832026 L -111.06099700927734 221.93899536132807 L -111.29900360107422 222.24999999999994 L -111.4489974975586 222.6119995117187 L -111.5 222.99999999999994 L -111.4489974975586 223.3880004882812 L -111.29900360107422 223.74999999999994 L -111.06099700927734 224.06100463867182 L -110.75 224.29899597167963 L -110.38800048828125 224.44900512695307 L -110 224.49999999999994 L -106.49600219726562 224.49999999999994 L -98.30400085449219 224.49999999999994 L -81.91999816894531 224.49999999999994 L -75 224.49999999999994 L -74.61199951171875 224.44900512695307 M -111.4489974975586 204.6119995117187 L -111.47370910644531 204.80000305175776 L -111.5 204.99999999999994 L -111.4489974975586 205.3880004882812 L -111.29900360107422 205.74999999999994 L -111.06099700927734 206.06100463867182 L -110.75 206.29899597167963 L -110.38800048828125 206.44900512695307 L -110 206.49999999999994 L -106.49600219726562 206.49999999999994 L -98.30400085449219 206.49999999999994 L -81.91999816894531 206.49999999999994 L -75 206.49999999999994 L -74.61199951171875 206.44900512695307 L -74.25 206.29899597167963 L -73.93900299072266 206.06100463867182 L -73.72799682617188 205.78527832031244 L -73.70099639892578 205.74999999999994 L -73.5510025024414 205.3880004882812 L -73.5 204.99999999999994 L -73.52629089355469 204.80000305175776 L -73.5510025024414 204.6119995117187 L -73.70099639892578 204.24999999999994 L -73.72799682617188 204.21472167968744 L -73.93900299072266 203.93899536132807 L -74.25 203.70100402832026 L -74.61199951171875 203.55099487304682 L -75 203.49999999999994 L -76.5707778930664 203.49999999999994 L -78.43281555175781 203.49999999999994 L -81.91999816894531 203.49999999999994 L -98.30400085449219 203.49999999999994 L -106.49600219726562 203.49999999999994 L -110 203.49999999999994 L -110.38800048828125 203.55099487304682 L -110.75 203.70100402832026 L -111.06099700927734 203.93899536132807 L -111.29900360107422 204.24999999999994 L -111.4489974975586 204.6119995117187 M -81.91999816894531 233.49999999999994 L -98.30400085449219 233.49999999999994 L -106.49600219726562 233.49999999999994 L -110 233.49999999999994 L -110.38800048828125 233.55099487304682 L -110.75 233.70100402832026 L -111.06099700927734 233.93899536132807 L -111.29900360107422 234.24999999999994 L -111.4489974975586 234.6119995117187 L -111.5 234.99999999999994 L -111.4489974975586 235.3880004882812 L -111.29900360107422 235.74999999999994 L -111.06099700927734 236.06100463867182 L -110.75 236.29899597167963 L -110.38800048828125 236.44900512695307 L -110 236.49999999999994 L -106.49600219726562 236.49999999999994 L -98.30400085449219 236.49999999999994 L -81.91999816894531 236.49999999999994 L -75 236.49999999999994 L -74.61199951171875 236.44900512695307 L -74.25 236.29899597167963 L -73.93900299072266 236.06100463867182 L -73.72799682617188 235.78527832031244 L -73.70099639892578 235.74999999999994 L -73.5510025024414 235.3880004882812 L -73.5 234.99999999999994 L -73.5510025024414 234.6119995117187 L -73.70099639892578 234.24999999999994 L -73.72799682617188 234.21472167968744 L -73.93900299072266 233.93899536132807 L -74.25 233.70100402832026 L -74.61199951171875 233.55099487304682 L -75 233.49999999999994 L -81.91999816894531 233.49999999999994 M -81.91999816894531 239.49999999999994 L -98.30400085449219 239.49999999999994 L -106.49600219726562 239.49999999999994 L -110 239.49999999999994 L -110.38800048828125 239.55099487304682 L -110.75 239.70100402832026 L -111.06099700927734 239.93899536132807 L -111.29900360107422 240.24999999999994 L -111.4489974975586 240.6119995117187 L -111.5 240.99999999999994 L -111.4489974975586 241.3880004882812 L -111.33463287353516 241.6640014648437 L -111.29900360107422 241.74999999999994 L -111.06099700927734 242.06100463867182 L -110.75 242.29899597167963 L -110.38800048828125 242.44900512695307 L -110 242.49999999999994 L -106.49600219726562 242.49999999999994 L -98.30400085449219 242.49999999999994 L -81.91999816894531 242.49999999999994 L -75 242.49999999999994 L -74.61199951171875 242.44900512695307 L -74.25 242.29899597167963 L -73.93900299072266 242.06100463867182 L -73.72799682617188 241.78527832031244 L -73.70099639892578 241.74999999999994 L -73.5510025024414 241.3880004882812 L -73.5 240.99999999999994 L -73.5510025024414 240.6119995117187 L -73.70099639892578 240.24999999999994 L -73.72799682617188 240.21472167968744 L -73.93900299072266 239.93899536132807 L -74.25 239.70100402832026 L -74.61199951171875 239.55099487304682 L -75 239.49999999999994 L -81.91999816894531 239.49999999999994 M -76.5707778930664 245.49999999999994 L -78.43281555175781 245.49999999999994 L -81.91999816894531 245.49999999999994 L -98.30400085449219 245.49999999999994 L -106.49600219726562 245.49999999999994 L -110 245.49999999999994 L -110.38800048828125 245.55099487304682 L -110.75 245.70100402832026 L -110.82709503173828 245.75999450683588 L -111.06099700927734 245.93899536132807 L -111.29900360107422 246.24999999999994 L -111.4489974975586 246.6119995117187 L -111.5 246.99999999999994 L -111.4489974975586 247.3880004882812 L -111.29900360107422 247.74999999999994 L -111.06099700927734 248.06100463867182 L -110.75 248.29899597167963 L -110.38800048828125 248.44900512695307 L -110 248.49999999999994 L -106.49600219726562 248.49999999999994 L -98.30400085449219 248.49999999999994 L -81.91999816894531 248.49999999999994 L -75 248.49999999999994 L -74.61199951171875 248.44900512695307 L -74.25 248.29899597167963 L -73.93900299072266 248.06100463867182 L -73.72799682617188 247.78527832031244 L -73.70099639892578 247.74999999999994 L -73.5510025024414 247.3880004882812 L -73.5 246.99999999999994 L -73.5510025024414 246.6119995117187 L -73.70099639892578 246.24999999999994 L -73.72799682617188 246.21472167968744 L -73.93900299072266 245.93899536132807 L -74.17290496826172 245.75999450683588 L -74.25 245.70100402832026 L -74.61199951171875 245.55099487304682 L -75 245.49999999999994 L -76.5707778930664 245.49999999999994 M -81.91999816894531 251.49999999999994 L -98.30400085449219 251.49999999999994 L -106.49600219726562 251.49999999999994 L -110 251.49999999999994 L -110.38800048828125 251.55099487304682 L -110.75 251.70100402832026 L -111.06099700927734 251.93899536132807 L -111.29900360107422 252.24999999999994 L -111.4489974975586 252.6119995117187 L -111.5 252.99999999999994 L -111.4489974975586 253.3880004882812 L -111.29900360107422 253.74999999999994 L -111.14441680908203 253.95199584960932 L -111.06099700927734 254.06100463867182 L -110.75 254.29899597167963 L -110.38800048828125 254.44900512695307 L -110 254.49999999999994 L -106.49600219726562 254.49999999999994 L -98.30400085449219 254.49999999999994 L -81.91999816894531 254.49999999999994 L -75 254.49999999999994 L -74.61199951171875 254.44900512695307 L -74.25 254.29899597167963 L -73.93900299072266 254.06100463867182 L -73.85558319091797 253.95199584960932 L -73.72799682617188 253.78527832031244 L -73.70099639892578 253.74999999999994 L -73.5510025024414 253.3880004882812 L -73.5 252.99999999999994 L -73.5510025024414 252.6119995117187 L -73.70099639892578 252.24999999999994 L -73.72799682617188 252.21472167968744 L -73.93900299072266 251.93899536132807 L -74.25 251.70100402832026 L -74.61199951171875 251.55099487304682 L -75 251.49999999999994 L -81.91999816894531 251.49999999999994 M -73.93900299072266 257.93899536132807 L -74.25 257.7009887695312 L -74.61199951171875 257.5509948730468 L -75 257.49999999999994 L -76.5707778930664 257.49999999999994 L -78.43281555175781 257.49999999999994 L -81.91999816894531 257.49999999999994 L -98.30400085449219 257.49999999999994 L -106.49600219726562 257.49999999999994 L -110 257.49999999999994 L -110.38800048828125 257.5509948730468 L -110.75 257.7009887695312 L -111.06099700927734 257.93899536132807 L -111.14441680908203 258.04800415039057 L -111.29900360107422 258.24999999999994 L -111.4489974975586 258.6119995117187 L -111.5 258.99999999999994 L -111.4489974975586 259.3880004882812 L -111.29900360107422 259.74999999999994 L -111.06099700927734 260.0610046386718 L -110.75 260.2990112304687 L -110.38800048828125 260.44900512695307 L -110 260.49999999999994 L -106.49600219726562 260.49999999999994 L -98.30400085449219 260.49999999999994 L -81.91999816894531 260.49999999999994 L -75 260.49999999999994 L -74.61199951171875 260.44900512695307 L -74.25 260.2990112304687 L -73.93900299072266 260.0610046386718 L -73.72799682617188 259.78527832031244 L -73.70099639892578 259.74999999999994 L -73.5510025024414 259.3880004882812 L -73.5 258.99999999999994 L -73.5510025024414 258.6119995117187 L -73.70099639892578 258.24999999999994 L -73.72799682617188 258.21472167968744 L -73.93900299072266 257.93899536132807 M -73.93900299072266 266.0610046386718 L -73.72799682617188 265.78527832031244 L -73.70099639892578 265.74999999999994 L -73.5510025024414 265.3880004882812 L -73.5 264.99999999999994 L -73.5510025024414 264.6119995117187 L -73.70099639892578 264.24999999999994 L -73.72799682617188 264.21472167968744 L -73.93900299072266 263.93899536132807 L -74.25 263.7009887695312 L -74.61199951171875 263.5509948730468 L -75 263.49999999999994 L -81.91999816894531 263.49999999999994 L -98.30400085449219 263.49999999999994 L -106.49600219726562 263.49999999999994 L -110 263.49999999999994 L -110.38800048828125 263.5509948730468 L -110.75 263.7009887695312 L -111.06099700927734 263.93899536132807 L -111.29900360107422 264.24999999999994 L -111.4489974975586 264.6119995117187 L -111.5 264.99999999999994 L -111.4489974975586 265.3880004882812 L -111.29900360107422 265.74999999999994 L -111.06099700927734 266.0610046386718 L -110.82709503173828 266.23999023437494 L -110.75 266.2990112304687 L -110.38800048828125 266.44900512695307 L -110 266.49999999999994 L -106.49600219726562 266.49999999999994 L -98.30400085449219 266.49999999999994 L -81.91999816894531 266.49999999999994 L -75 266.49999999999994 L -74.61199951171875 266.44900512695307 L -74.25 266.2990112304687 L -73.93900299072266 266.0610046386718 M -76.5707778930664 275.49999999999994 L -78.43281555175781 275.49999999999994 L -81.91999816894531 275.49999999999994 L -98.30400085449219 275.49999999999994 L -106.49600219726562 275.49999999999994 L -110 275.49999999999994 L -110.38800048828125 275.5509948730468 L -110.75 275.7009887695312 L -111.06099700927734 275.93899536132807 L -111.29900360107422 276.24999999999994 L -111.4489974975586 276.6119995117187 L -111.5 276.99999999999994 L -111.4489974975586 277.3880004882812 L -111.29900360107422 277.74999999999994 L -111.06099700927734 278.0610046386718 L -110.75 278.2990112304687 L -110.38800048828125 278.44900512695307 L -110 278.49999999999994 L -106.49600219726562 278.49999999999994 L -98.30400085449219 278.49999999999994 L -81.91999816894531 278.49999999999994 L -78.86659240722656 278.49999999999994 L -75 278.49999999999994 L -74.61199951171875 278.44900512695307 L -74.25 278.2990112304687 L -73.93900299072266 278.0610046386718 L -73.72799682617188 277.78527832031244 L -73.70099639892578 277.74999999999994 L -73.5510025024414 277.3880004882812 L -73.5 276.99999999999994 L -73.5510025024414 276.6119995117187 L -73.70099639892578 276.24999999999994 L -73.72799682617188 276.21472167968744 L -73.93900299072266 275.93899536132807 L -74.25 275.7009887695312 L -74.61199951171875 275.5509948730468 L -75 275.49999999999994 L -76.5707778930664 275.49999999999994 M -81.91999816894531 281.49999999999994 L -98.30400085449219 281.49999999999994 L -110 281.49999999999994 L -110.38800048828125 281.5509948730468 L -110.75 281.7009887695312 L -111.06099700927734 281.93899536132807 L -111.29900360107422 282.24999999999994 L -111.4489974975586 282.6119995117187 L -111.5 282.99999999999994 L -111.4489974975586 283.3880004882812 L -111.29900360107422 283.74999999999994 L -111.06099700927734 284.0610046386718 L -110.75 284.2990112304687 L -110.38800048828125 284.44900512695307 L -110 284.49999999999994 L -98.30400085449219 284.49999999999994 L -81.91999816894531 284.49999999999994 L -75 284.49999999999994 L -74.61199951171875 284.44900512695307 L -74.25 284.2990112304687 L -73.93900299072266 284.0610046386718 L -73.70099639892578 283.74999999999994 L -73.5510025024414 283.3880004882812 L -73.5 282.99999999999994 L -73.5510025024414 282.6119995117187 L -73.70099639892578 282.24999999999994 L -73.93900299072266 281.93899536132807 L -74.25 281.7009887695312 L -74.61199951171875 281.5509948730468 L -75 281.49999999999994 L -81.91999816894531 281.49999999999994 M -111.29900360107422 270.24999999999994 L -111.33463287353516 270.3359985351562 L -111.4489974975586 270.6119995117187 L -111.5 270.99999999999994 L -111.4489974975586 271.3880004882812 L -111.29900360107422 271.74999999999994 L -111.06099700927734 272.0610046386718 L -110.75 272.2990112304687 L -110.38800048828125 272.44900512695307 L -110 272.49999999999994 L -106.49600219726562 272.49999999999994 L -98.30400085449219 272.49999999999994 L -81.91999816894531 272.49999999999994 L -75 272.49999999999994 L -74.61199951171875 272.44900512695307 L -74.25 272.2990112304687 L -73.93900299072266 272.0610046386718 L -73.72799682617188 271.78527832031244 L -73.70099639892578 271.74999999999994 L -73.5510025024414 271.3880004882812 L -73.5 270.99999999999994 L -73.5510025024414 270.6119995117187 L -73.66536712646484 270.3359985351562 L -73.70099639892578 270.24999999999994 L -73.72799682617188 270.21472167968744 L -73.93900299072266 269.93899536132807 L -74.25 269.7009887695312 L -74.61199951171875 269.5509948730468 L -75 269.49999999999994 L -78.43281555175781 269.49999999999994 L -81.91999816894531 269.49999999999994 L -98.30400085449219 269.49999999999994 L -106.49600219726562 269.49999999999994 L -110 269.49999999999994 L -110.38800048828125 269.5509948730468 L -110.75 269.7009887695312 L -111.06099700927734 269.93899536132807 L -111.29900360107422 270.24999999999994 M -110 290.49999999999994 L -98.30400085449219 290.49999999999994 L -81.91999816894531 290.49999999999994 L -75 290.49999999999994 L -74.61199951171875 290.44900512695307 L -74.25 290.2990112304687 L -73.93900299072266 290.0610046386718 L -73.70099639892578 289.74999999999994 L -73.5510025024414 289.3880004882812 L -73.5 288.99999999999994 L -73.5510025024414 288.6119995117187 L -73.70099639892578 288.24999999999994 L -73.93900299072266 287.93899536132807 L -74.25 287.7009887695312 L -74.61199951171875 287.5509948730468 L -75 287.49999999999994 L -81.91999816894531 287.49999999999994 L -98.30400085449219 287.49999999999994 L -110 287.49999999999994 L -110.38800048828125 287.5509948730468 L -110.75 287.7009887695312 L -111.06099700927734 287.93899536132807 L -111.29900360107422 288.24999999999994 L -111.4489974975586 288.6119995117187 L -111.5 288.99999999999994 L -111.4489974975586 289.3880004882812 L -111.29900360107422 289.74999999999994 L -111.06099700927734 290.0610046386718 L -110.75 290.2990112304687 L -110.38800048828125 290.44900512695307 L -110 290.49999999999994 z" fill="none" stroke="rgb(255,0,0)" stroke-width="0.001mm" />
</svg>