<?xml version="1.0" standalone="no"?>
<!DOCTYPE svg PUBLIC "-//W3C//DTD SVG 1.1//EN"
  "http://www.w3.org/Graphics/SVG/1.1/DTD/svg11.dtd">
<svg width="282mm" height="181.99999999999997mm" viewBox="-381 -296.99999999999994 282 181.99999999999997" xmlns="http://www.w3.org/2000/svg" version="1.1">
	<title>svgOutput</title>
	<desc>made with tinkercad</desc>
<path d="M -131.11099243164062 -295.99999999999994 L -100 -295.99999999999994 L -100 -289.99999999999994 L -100 -270.28601074218744 L -106 -270.28601074218744 L -106 -262.1440124511718 L -106 -244.57099914550776 L -100 -244.57099914550776 L -100 -218.8569946289062 L -106 -218.8569946289062 L -106 -196.60800170898432 L -106 -193.1430053710937 L -100 -193.1430053710937 L -100 -167.42900085449216 L -106 -167.42900085449216 L -106 -163.8399963378906 L -106 -160.69880676269528 L -106 -156.4753265380859 L -106 -152.47602844238278 L -106 -141.71400451660153 L -100 -141.71400451660153 L -100 -131.0720062255859 L -100 -115.99999999999997 L -131.07200622558594 -115.99999999999997 L -131.11099243164062 -115.99999999999997 L -131.11099243164062 -121.99999999999997 L -162.2220001220703 -121.99999999999997 L -162.2220001220703 -115.99999999999997 L -193.33299255371094 -115.99999999999997 L -193.33299255371094 -121.99999999999997 L -224.44400024414062 -121.99999999999997 L -224.44400024414062 -115.99999999999997 L -255.55599975585938 -115.99999999999997 L -255.55599975585938 -121.99999999999997 L -262.1440124511719 -121.99999999999997 L -286.6669921875 -121.99999999999997 L -286.6669921875 -115.99999999999997 L -317.77801513671875 -115.99999999999997 L -317.77801513671875 -121.99999999999997 L -348.8890075683594 -121.99999999999997 L -348.8890075683594 -115.99999999999997 L -380 -115.99999999999997 L -380 -121.99999999999997 L -380 -131.0720062255859 L -380 -141.71400451660153 L -374 -141.71400451660153 L -374 -167.42900085449216 L -380 -167.42900085449216 L -380 -193.1430053710937 L -374 -193.1430053710937 L -374 -196.60800170898432 L -374 -205.89205932617182 L -374 -218.8569946289062 L -380 -218.8569946289062 L -380 -219.94546508789057 L -380 -234.547866821289 L -380 -244.57099914550776 L -374 -244.57099914550776 L -374 -247.32260131835932 L -374 -262.1440124511718 L -374 -270.28601074218744 L -380 -270.28601074218744 L -380 -289.99999999999994 L -380 -295.99999999999994 L -348.8890075683594 -295.99999999999994 L -348.8890075683594 -289.99999999999994 L -317.77801513671875 -289.99999999999994 L -317.77801513671875 -295.99999999999994 L -286.6669921875 -295.99999999999994 L -286.6669921875 -289.99999999999994 L -262.1440124511719 -289.99999999999994 L -255.55599975585938 -289.99999999999994 L -255.55599975585938 -295.99999999999994 L -224.44400024414062 -295.99999999999994 L -224.44400024414062 -289.99999999999994 L -193.33299255371094 -289.99999999999994 L -193.33299255371094 -295.99999999999994 L -162.2220001220703 -295.99999999999994 L -162.2220001220703 -289.99999999999994 L -131.11099243164062 -289.99999999999994 L -131.11099243164062 -295.99999999999994 M -128.94700622558594 -182.16999816894528 L -131.07200622558594 -183.1558685302734 L -131.73399353027344 -183.4629974365234 L -134.66799926757812 -184.37300109863278 L -137.697998046875 -184.88400268554685 L -140.7689971923828 -184.98699951171872 L -143.8260040283203 -184.67999267578122 L -146.81399536132812 -183.96699523925778 L -149.68099975585938 -182.86300659179685 L -152.37600708007812 -181.38600158691403 L -154.8489990234375 -179.5639953613281 L -157.05799865722656 -177.42799377441403 L -158.96200561523438 -175.0169982910156 L -160.5279998779297 -172.37300109863278 L -161.7270050048828 -169.54499816894528 L -162.53900146484375 -166.58099365234372 L -162.90806579589844 -163.8399963378906 L -162.94900512695312 -163.5359954833984 L -162.94900512695312 -160.46400451660153 L -162.53900146484375 -157.41900634765622 L -161.7270050048828 -154.45500183105466 L -160.5279998779297 -151.62699890136716 L -158.96200561523438 -148.98300170898435 L -157.756103515625 -147.45599365234372 L -157.05799865722656 -146.5720062255859 L -154.8489990234375 -144.43600463867185 L -152.37600708007812 -142.61300659179685 L -149.68099975585938 -141.1369934082031 L -146.81399536132812 -140.03300476074216 L -143.8260040283203 -139.32000732421872 L -140.7689971923828 -139.01300048828122 L -137.697998046875 -139.11500549316403 L -134.66799926757812 -139.62699890136716 L -131.73399353027344 -140.53700256347653 L -131.07200622558594 -140.84413146972653 L -128.94700622558594 -141.83000183105466 L -126.35700225830078 -143.48300170898435 L -124.01100158691406 -145.46699523925778 L -121.94999694824219 -147.7460021972656 L -120.21099853515625 -150.27900695800778 L -118.82499694824219 -153.02099609374997 L -117.81700134277344 -155.9230041503906 L -117.20500183105469 -158.93400573730466 L -117 -161.99999999999997 L -117.1230239868164 -163.8399963378906 L -117.20500183105469 -165.06599426269528 L -117.81700134277344 -168.07600402832028 L -118.82499694824219 -170.97900390624997 L -120.21099853515625 -173.72099304199216 L -121.94999694824219 -176.25399780273435 L -124.01100158691406 -178.53300476074216 L -126.35700225830078 -180.5169982910156 L -128.94700622558594 -182.16999816894528 M -182.3040008544922 -252.0910034179687 L -183.2100067138672 -252.21000671386713 L -196.60800170898438 -252.21000671386713 L -262.1440124511719 -252.21000671386713 L -336.7900085449219 -252.21000671386713 L -337.6960144042969 -252.0910034179687 L -338.5400085449219 -251.74099731445307 L -339.2650146484375 -251.1849975585937 L -339.8210144042969 -250.46000671386713 L -340.1709899902344 -249.61599731445307 L -340.2900085449219 -248.71000671386713 L -340.2900085449219 -196.60800170898432 L -340.2900085449219 -163.28999328613278 L -340.1709899902344 -162.38400268554685 L -339.8210144042969 -161.53999328613278 L -339.2650146484375 -160.81500244140622 L -338.5400085449219 -160.25900268554685 L -337.6960144042969 -159.90899658203122 L -336.7900085449219 -159.78999328613278 L -262.1440124511719 -159.78999328613278 L -196.60800170898438 -159.78999328613278 L -183.2100067138672 -159.78999328613278 L -182.3040008544922 -159.90899658203122 L -181.4600067138672 -160.25900268554685 L -180.73500061035156 -160.81500244140622 L -180.1790008544922 -161.53999328613278 L -179.82899475097656 -162.38400268554685 L -179.7100067138672 -163.28999328613278 L -179.7100067138672 -163.8399963378906 L -179.7100067138672 -166.4055480957031 L -179.7100067138672 -171.29968261718747 L -179.7100067138672 -176.11732482910153 L -179.7100067138672 -196.60800170898432 L -179.7100067138672 -229.37600708007807 L -179.7100067138672 -248.71000671386713 L -179.82899475097656 -249.61599731445307 L -180.1790008544922 -250.46000671386713 L -180.73500061035156 -251.1849975585937 L -181.4600067138672 -251.74099731445307 L -182.3040008544922 -252.0910034179687 M -155.13800048828125 -205.01199340820307 L -155.01400756835938 -205.94999694824213 L -155.13800048828125 -206.8880004882812 L -155.5 -207.7630004882812 L -156.0760040283203 -208.5130004882812 L -156.82699584960938 -209.0890045166015 L -157.7010040283203 -209.45100402832026 L -158.63900756835938 -209.57499694824213 L -159.5780029296875 -209.45100402832026 L -160.45199584960938 -209.0890045166015 L -161.2030029296875 -208.5130004882812 L -161.7790069580078 -207.7630004882812 L -162.14100646972656 -206.8880004882812 L -162.26400756835938 -205.94999694824213 L -162.14100646972656 -205.01199340820307 L -162.0532989501953 -204.80000305175776 L -161.7790069580078 -204.13699340820307 L -161.2030029296875 -203.38699340820307 L -160.45199584960938 -202.81100463867182 L -159.5780029296875 -202.44900512695307 L -158.63900756835938 -202.32499694824213 L -157.7010040283203 -202.44900512695307 L -156.82699584960938 -202.81100463867182 L -156.0760040283203 -203.38699340820307 L -155.5 -204.13699340820307 L -155.2257080078125 -204.80000305175776 L -155.13800048828125 -205.01199340820307 z" fill="none" stroke="rgb(255,0,0)" stroke-width="0.1mm" />
</svg>