<?xml version="1.0" standalone="no"?>
<!DOCTYPE svg PUBLIC "-//W3C//DTD SVG 1.1//EN"
  "http://www.w3.org/Graphics/SVG/1.1/DTD/svg11.dtd">
<svg width="282mm" height="181.99999999999997mm" viewBox="-388 -87.99999999999999 282 181.99999999999997" xmlns="http://www.w3.org/2000/svg" version="1.1">
	<title>svgOutput</title>
	<desc>made with tinkercad</desc>
<path d="M -107 -9.857000350952147 L -113 -9.857000350952147 L -113 1.1102230246251565e-16 L -113 15.857000350952145 L -107 15.857000350952145 L -107 32.76800155639648 L -107 41.570999145507805 L -113 41.570999145507805 L -113 49.15200042724608 L -113 65.53600311279295 L -113 67.28600311279295 L -107 67.28600311279295 L -107 92.99999999999999 L -113 92.99999999999999 L -131.07200622558594 92.99999999999999 L -138.11099243164062 92.99999999999999 L -138.11099243164062 86.99999999999999 L -147.45599365234375 86.99999999999999 L -163.83999633789062 86.99999999999999 L -169.2220001220703 86.99999999999999 L -169.2220001220703 92.99999999999999 L -196.60800170898438 92.99999999999999 L -200.33299255371094 92.99999999999999 L -200.33299255371094 86.99999999999999 L -231.44400024414062 86.99999999999999 L -231.44400024414062 92.99999999999999 L -262.1440124511719 92.99999999999999 L -262.5559997558594 92.99999999999999 L -262.5559997558594 86.99999999999999 L -293.6669921875 86.99999999999999 L -293.6669921875 92.99999999999999 L -324.77801513671875 92.99999999999999 L -324.77801513671875 86.99999999999999 L -327.67999267578125 86.99999999999999 L -355.8890075683594 86.99999999999999 L -355.8890075683594 92.99999999999999 L -387 92.99999999999999 L -387 86.99999999999999 L -387 67.28600311279295 L -381 67.28600311279295 L -381 56.749999999999986 L -381 41.570999145507805 L -387 41.570999145507805 L -387 15.857000350952145 L -381 15.857000350952145 L -381 1.1102230246251565e-16 L -381 -9.857000350952147 L -387 -9.857000350952147 L -387 -35.570999145507805 L -381 -35.570999145507805 L -381 -61.28599929809569 L -387 -61.28599929809569 L -387 -80.99999999999999 L -387 -86.99999999999999 L -355.8890075683594 -86.99999999999999 L -355.8890075683594 -80.99999999999999 L -348.41046142578125 -80.99999999999999 L -337.909423828125 -80.99999999999999 L -327.67999267578125 -80.99999999999999 L -324.77801513671875 -80.99999999999999 L -324.77801513671875 -86.99999999999999 L -293.6669921875 -86.99999999999999 L -293.6669921875 -80.99999999999999 L -262.5559997558594 -80.99999999999999 L -262.5559997558594 -86.99999999999999 L -262.1440124511719 -86.99999999999999 L -231.44400024414062 -86.99999999999999 L -231.44400024414062 -80.99999999999999 L -208.84922790527344 -80.99999999999999 L -200.33299255371094 -80.99999999999999 L -200.33299255371094 -86.99999999999999 L -169.2220001220703 -86.99999999999999 L -169.2220001220703 -80.99999999999999 L -138.11099243164062 -80.99999999999999 L -138.11099243164062 -86.99999999999999 L -131.07200622558594 -86.99999999999999 L -107 -86.99999999999999 L -107 -61.28599929809569 L -113 -61.28599929809569 L -113 -35.570999145507805 L -107 -35.570999145507805 L -107 -9.857000350952147 M -182.0500030517578 -45.660999298095696 L -182.74899291992188 -45.95100021362304 L -183.5 -46.04999923706054 L -231.44400024414062 -46.04999923706054 L -262.1440124511719 -46.04999923706054 L -327.67999267578125 -46.04999923706054 L -350.5 -46.04999923706054 L -351.2510070800781 -45.95100021362304 L -351.95001220703125 -45.660999298095696 L -352.5509948730469 -45.20100021362304 L -353.010986328125 -44.59999847412109 L -353.3009948730469 -43.90100097656249 L -353.3999938964844 -43.1500015258789 L -353.3999938964844 1.1102230246251565e-16 L -353.3999938964844 53.84999847412108 L -353.3009948730469 54.60100173950194 L -353.010986328125 55.29999923706053 L -352.5509948730469 55.901000976562486 L -351.95001220703125 56.36100006103514 L -351.2510070800781 56.651000976562486 L -350.5 56.749999999999986 L -327.67999267578125 56.749999999999986 L -262.1440124511719 56.749999999999986 L -196.60800170898438 56.749999999999986 L -183.5 56.749999999999986 L -182.74899291992188 56.651000976562486 L -182.0500030517578 56.36100006103514 L -181.44900512695312 55.901000976562486 L -180.98899841308594 55.29999923706053 L -180.69900512695312 54.60100173950194 L -180.60000610351562 53.84999847412108 L -180.60000610351562 49.15200042724608 L -180.60000610351562 32.76800155639648 L -180.60000610351562 16.38400077819824 L -180.60000610351562 1.1102230246251565e-16 L -180.60000610351562 -43.1500015258789 L -180.69900512695312 -43.90100097656249 L -180.98899841308594 -44.59999847412109 L -181.44900512695312 -45.20100021362304 L -182.0500030517578 -45.660999298095696 M -163.22500610351562 3.69700002670288 L -163.13900756835938 3.0499999523162833 L -163.22500610351562 2.403000116348266 L -163.4739990234375 1.7999999523162837 L -163.83999633789062 1.32364821434021 L -163.8719940185547 1.281999945640564 L -164.38900756835938 0.8849999904632567 L -164.99200439453125 0.6349999904632568 L -165.63900756835938 0.550000011920929 L -166.28599548339844 0.6349999904632568 L -166.88900756835938 0.8849999904632567 L -167.40699768066406 1.281999945640564 L -167.8040008544922 1.7999999523162837 L -168.0540008544922 2.403000116348266 L -168.13900756835938 3.0499999523162833 L -168.0540008544922 3.69700002670288 L -167.88858032226562 4.09600019454956 L -167.8040008544922 4.300000190734862 L -167.40699768066406 4.817999839782714 L -166.88900756835938 5.21500015258789 L -166.28599548339844 5.46500015258789 L -165.63900756835938 5.550000190734862 L -164.99200439453125 5.46500015258789 L -164.38900756835938 5.21500015258789 L -163.8719940185547 4.817999839782714 L -163.83999633789062 4.776351928710937 L -163.4739990234375 4.300000190734862 L -163.22500610351562 3.69700002670288 M -151.48199462890625 22.405000686645504 L -153.98699951171875 22.99600028991699 L -156.41799926757812 23.841999053955075 L -158.74899291992188 24.933000564575188 L -160.95599365234375 26.25799942016601 L -163.01499938964844 27.802999496459954 L -163.83999633789062 28.566419601440423 L -164.9040069580078 29.551000595092766 L -166.60299682617188 31.485000610351555 L -167.51480102539062 32.76800155639648 L -168.093994140625 33.58300018310546 L -169.36199951171875 35.82300186157226 L -170.39300537109375 38.18099975585937 L -171.17599487304688 40.63299942016601 L -171.70199584960938 43.15299987792968 L -171.9669952392578 45.713001251220696 L -171.9669952392578 48.28699874877928 L -171.87745666503906 49.15200042724608 L -171.70199584960938 50.8470001220703 L -171.4674835205078 51.97054290771483 L -171.17599487304688 53.36700057983397 L -170.39300537109375 55.81900024414061 L -169.36199951171875 58.17699813842772 L -168.093994140625 60.41699981689452 L -166.60299682617188 62.51499938964842 L -164.9040069580078 64.44899749755858 L -163.83999633789062 65.43357849121092 L -163.7293243408203 65.53600311279295 L -163.01499938964844 66.19699859619139 L -160.95599365234375 67.7419967651367 L -158.74899291992188 69.06700134277342 L -156.41799926757812 70.15799713134764 L -153.98699951171875 71.00399780273436 L -151.48199462890625 71.59500122070311 L -148.9290008544922 71.9250030517578 L -147.45599365234375 71.96335601806639 L -146.3560028076172 71.9919967651367 L -143.7899932861328 71.79299926757811 L -141.25799560546875 71.33200073242186 L -138.78599548339844 70.61199951171874 L -136.40199279785156 69.6429977416992 L -134.1300048828125 68.43299865722655 L -131.9949951171875 66.99600219726561 L -131.07200622558594 66.22613525390624 L -130.24459838867188 65.53600311279295 L -130.01800537109375 65.3470001220703 L -128.2220001220703 63.504001617431626 L -126.6240005493164 61.48600006103514 L -125.24299621582031 59.313999176025376 L -124.09200286865234 57.01100158691405 L -123.18399810791016 54.603000640869126 L -122.52899932861328 52.11399841308592 L -122.13300323486328 49.5709991455078 L -122.111328125 49.15200042724608 L -122 46.99999999999999 L -122.13300323486328 44.42900085449218 L -122.52899932861328 41.886001586914055 L -122.61189270019531 41.570999145507805 L -123.18399810791016 39.39699935913085 L -124.09200286865234 36.98899841308593 L -125.24299621582031 34.6860008239746 L -126.4625015258789 32.76800155639648 L -126.6240005493164 32.51399993896484 L -128.2220001220703 30.496000289916985 L -130.01800537109375 28.65299987792968 L -131.07200622558594 27.773866653442376 L -131.9949951171875 27.003999710083 L -134.1300048828125 25.566999435424798 L -136.40199279785156 24.35700035095214 L -138.78599548339844 23.388000488281246 L -141.25799560546875 22.66799926757812 L -143.7899932861328 22.20700073242187 L -146.3560028076172 22.007999420166012 L -148.9290008544922 22.07500076293945 L -151.48199462890625 22.405000686645504 z" fill="none" stroke="rgb(255,0,0)" stroke-width="0.001mm" />
</svg>