<?xml version="1.0" standalone="no"?>
<!DOCTYPE svg PUBLIC "-//W3C//DTD SVG 1.1//EN"
  "http://www.w3.org/Graphics/SVG/1.1/DTD/svg11.dtd">
<svg width="282mm" height="84mm" viewBox="51 246.99999999999994 282 84" xmlns="http://www.w3.org/2000/svg" version="1.1">
	<title>svgOutput</title>
	<desc>made with tinkercad</desc>
<path d="M 269.77801513671875 329.99999999999994 L 269.77801513671875 323.99999999999994 L 262.1440124511719 323.99999999999994 L 238.66700744628906 323.99999999999994 L 238.66700744628906 329.99999999999994 L 207.55599975585938 329.99999999999994 L 207.55599975585938 323.99999999999994 L 196.60800170898438 323.99999999999994 L 176.44400024414062 323.99999999999994 L 176.44400024414062 327.6799926757812 L 176.44400024414062 329.99999999999994 L 145.33299255371094 329.99999999999994 L 145.33299255371094 327.6799926757812 L 145.33299255371094 323.99999999999994 L 131.07200622558594 323.99999999999994 L 114.22200012207031 323.99999999999994 L 114.22200012207031 327.6799926757812 L 114.22200012207031 329.99999999999994 L 83.11100006103516 329.99999999999994 L 83.11100006103516 327.6799926757812 L 83.11100006103516 323.99999999999994 L 65.53600311279297 323.99999999999994 L 58 323.99999999999994 L 52 323.99999999999994 L 52 301.99999999999994 L 58 301.99999999999994 L 58 275.99999999999994 L 52 275.99999999999994 L 52 262.1440124511718 L 52 253.99999999999994 L 83.11100006103516 253.99999999999994 L 83.11100006103516 247.99999999999994 L 114.22200012207031 247.99999999999994 L 114.22200012207031 253.99999999999994 L 131.07200622558594 253.99999999999994 L 145.33299255371094 253.99999999999994 L 145.33299255371094 247.99999999999994 L 176.44400024414062 247.99999999999994 L 176.44400024414062 253.99999999999994 L 196.60800170898438 253.99999999999994 L 207.55599975585938 253.99999999999994 L 207.55599975585938 247.99999999999994 L 238.66700744628906 247.99999999999994 L 238.66700744628906 253.99999999999994 L 262.1440124511719 253.99999999999994 L 269.77801513671875 253.99999999999994 L 269.77801513671875 247.99999999999994 L 282 247.99999999999994 L 300.8890075683594 247.99999999999994 L 300.8890075683594 253.99999999999994 L 326 253.99999999999994 L 332 253.99999999999994 L 332 275.99999999999994 L 326 275.99999999999994 L 326 301.99999999999994 L 332 301.99999999999994 L 332 323.99999999999994 L 300.8890075683594 323.99999999999994 L 300.8890075683594 329.99999999999994 L 282 329.99999999999994 L 269.77801513671875 329.99999999999994 M 136 287.73599243164057 L 135.67300415039062 287.7789916992187 L 135.3679962158203 287.9049987792968 L 135.16799926757812 288.0584411621093 L 135.1060028076172 288.10598754882807 L 134.90499877929688 288.3680114746093 L 134.7790069580078 288.67300415039057 L 134.73500061035156 288.99999999999994 L 134.7790069580078 289.3269958496093 L 134.90499877929688 289.63198852539057 L 135.1060028076172 289.8940124511718 L 135.16799926757812 289.94155883789057 L 135.3679962158203 290.09500122070307 L 135.67300415039062 290.2210083007812 L 136 290.26501464843744 L 136.32699584960938 290.2210083007812 L 136.6320037841797 290.09500122070307 L 136.8939971923828 289.8940124511718 L 137.09500122070312 289.63198852539057 L 137.2209930419922 289.3269958496093 L 137.26400756835938 288.99999999999994 L 137.23348999023438 288.7680053710937 L 137.2209930419922 288.67300415039057 L 137.09500122070312 288.3680114746093 L 136.8939971923828 288.10598754882807 L 136.6320037841797 287.9049987792968 L 136.32699584960938 287.7789916992187 L 136 287.73599243164057 M 94.77899932861328 288.67300415039057 L 94.76622009277344 288.7680053710937 L 94.73500061035156 288.99999999999994 L 94.77899932861328 289.3269958496093 L 94.90499877929688 289.63198852539057 L 95.10600280761719 289.8940124511718 L 95.36799621582031 290.09500122070307 L 95.6729965209961 290.2210083007812 L 96 290.26501464843744 L 96.3270034790039 290.2210083007812 L 96.63200378417969 290.09500122070307 L 96.89399719238281 289.8940124511718 L 97.09500122070312 289.63198852539057 L 97.22100067138672 289.3269958496093 L 97.26399993896484 288.99999999999994 L 97.23348999023438 288.7680053710937 L 97.22100067138672 288.67300415039057 L 97.09500122070312 288.3680114746093 L 96.89399719238281 288.10598754882807 L 96.63200378417969 287.9049987792968 L 96.3270034790039 287.7789916992187 L 96 287.73599243164057 L 95.6729965209961 287.7789916992187 L 95.36799621582031 287.9049987792968 L 95.10600280761719 288.10598754882807 L 94.90499877929688 288.3680114746093 L 94.77899932861328 288.67300415039057 M 130 298.7999877929687 L 130 294.91198730468744 L 130 279.2000122070312 L 102 279.2000122070312 L 102 294.91198730468744 L 102 298.7999877929687 L 114.22200012207031 298.7999877929687 L 130 298.7999877929687 M 262.1440124511719 295.75601196289057 L 269.77801513671875 295.75601196289057 L 282 295.75601196289057 L 282 282.24600219726557 L 269.77801513671875 282.24600219726557 L 262.1440124511719 282.24600219726557 L 253.1999969482422 282.24600219726557 L 253.1999969482422 295.75601196289057 L 262.1440124511719 295.75601196289057 z" fill="none" stroke="rgb(255,0,0)" stroke-width="0.1mm" />
</svg>