<?xml version="1.0" standalone="no"?>
<!DOCTYPE svg PUBLIC "-//W3C//DTD SVG 1.1//EN"
  "http://www.w3.org/Graphics/SVG/1.1/DTD/svg11.dtd">
<svg width="84mm" height="181.99999999999994mm" viewBox="-80 -75.99999999999999 84 181.99999999999994" xmlns="http://www.w3.org/2000/svg" version="1.1">
	<title>svgOutput</title>
	<desc>made with tinkercad</desc>
<path d="M -3 -68.99999999999999 L -3 -49.28599929809569 L 3 -49.28599929809569 L 3 -23.57099914550781 L -3 -23.57099914550781 L -3 1.1102230246251565e-16 L -3 2.14299988746643 L 0 2.14299988746643 L 3 2.14299988746643 L 3 27.85700035095214 L 0 27.85700035095214 L -3 27.85700035095214 L -3 32.76800155639648 L -3 53.5709991455078 L 0 53.5709991455078 L 3 53.5709991455078 L 3 65.53600311279295 L 3 79.28600311279295 L -3 79.28600311279295 L -3 98.99999999999997 L -25 98.99999999999997 L -25 104.99999999999997 L -51 104.99999999999997 L -51 98.99999999999997 L -73 98.99999999999997 L -73 79.28600311279295 L -79 79.28600311279295 L -79 65.53600311279295 L -79 53.5709991455078 L -73 53.5709991455078 L -73 27.85700035095214 L -79 27.85700035095214 L -79 2.14299988746643 L -73 2.14299988746643 L -73 1.1102230246251565e-16 L -73 -23.57099914550781 L -79 -23.57099914550781 L -79 -49.28599929809569 L -73 -49.28599929809569 L -73 -68.99999999999999 L -51 -68.99999999999999 L -51 -74.99999999999999 L -25 -74.99999999999999 L -25 -68.99999999999999 L -3 -68.99999999999999 M -32.2599983215332 1.1419999599456787 L -32.768001556396484 0.9694768786430358 L -34.11800003051758 0.5109999775886536 L -36.04199981689453 0.12800000607967385 L -38 1.1102230246251565e-16 L -39.95800018310547 0.12800000607967385 L -41.88199996948242 0.5109999775886536 L -43.7400016784668 1.1419999599456787 L -45.5 2.0099999904632564 L -47.13100051879883 3.0999999046325675 L -48.606998443603516 4.393000125885009 L -49.900001525878906 5.868999958038329 L -50.9900016784668 7.499999999999998 L -51.858001708984375 9.260000228881834 L -52.48899841308594 11.118000030517576 L -52.87200164794922 13.041999816894528 L -53 14.999999999999996 L -52.909523010253906 16.38400077819824 L -52.87200164794922 16.958000183105465 L -52.48899841308594 18.88199996948242 L -51.858001708984375 20.73999977111816 L -50.9900016784668 22.499999999999996 L -49.900001525878906 24.13100051879882 L -48.606998443603516 25.60700035095214 L -47.13100051879883 26.899999618530266 L -45.5 27.989999771118157 L -43.7400016784668 28.857999801635735 L -41.88199996948242 29.489000320434563 L -39.95800018310547 29.87199974060058 L -38 29.999999999999993 L -36.04199981689453 29.87199974060058 L -34.11800003051758 29.489000320434563 L -32.768001556396484 29.03052330017089 L -32.2599983215332 28.857999801635735 L -30.5 27.989999771118157 L -28.868999481201172 26.899999618530266 L -27.39299964904785 25.60700035095214 L -26.100000381469727 24.13100051879882 L -25.010000228881836 22.499999999999996 L -24.142000198364258 20.73999977111816 L -23.51099967956543 18.88199996948242 L -23.128000259399414 16.958000183105465 L -23.09047508239746 16.38400077819824 L -23 14.999999999999996 L -23.128000259399414 13.041999816894528 L -23.51099967956543 11.118000030517576 L -24.142000198364258 9.260000228881834 L -25.010000228881836 7.499999999999998 L -26.100000381469727 5.868999958038329 L -27.39299964904785 4.393000125885009 L -28.868999481201172 3.0999999046325675 L -30.5 2.0099999904632564 L -32.2599983215332 1.1419999599456787 z" fill="none" stroke="rgb(255,0,0)" stroke-width="0.001mm" />
</svg>