<?xml version="1.0" standalone="no"?>
<!DOCTYPE svg PUBLIC "-//W3C//DTD SVG 1.1//EN"
  "http://www.w3.org/Graphics/SVG/1.1/DTD/svg11.dtd">
<svg width="282mm" height="84mm" viewBox="36 -483.9999999999999 282 84" xmlns="http://www.w3.org/2000/svg" version="1.1">
	<title>svgOutput</title>
	<desc>made with tinkercad</desc>
<path d="M 317 -454.9999999999999 L 311 -454.9999999999999 L 311 -428.9999999999999 L 317 -428.9999999999999 L 317 -406.9999999999999 L 285.8890075683594 -406.9999999999999 L 285.8890075683594 -400.9999999999999 L 262.1440124511719 -400.9999999999999 L 254.7779998779297 -400.9999999999999 L 254.7779998779297 -406.9999999999999 L 223.66700744628906 -406.9999999999999 L 223.66700744628906 -400.9999999999999 L 192.55599975585938 -400.9999999999999 L 192.55599975585938 -406.9999999999999 L 161.44400024414062 -406.9999999999999 L 161.44400024414062 -400.9999999999999 L 131.07200622558594 -400.9999999999999 L 130.33299255371094 -400.9999999999999 L 130.33299255371094 -406.9999999999999 L 99.22200012207031 -406.9999999999999 L 99.22200012207031 -400.9999999999999 L 68.11100006103516 -400.9999999999999 L 68.11100006103516 -406.9999999999999 L 37 -406.9999999999999 L 37 -428.9999999999999 L 43 -428.9999999999999 L 43 -454.9999999999999 L 37 -454.9999999999999 L 37 -476.9999999999999 L 43 -476.9999999999999 L 68.11100006103516 -476.9999999999999 L 68.11100006103516 -482.9999999999999 L 99.22200012207031 -482.9999999999999 L 99.22200012207031 -476.9999999999999 L 130.33299255371094 -476.9999999999999 L 130.33299255371094 -482.9999999999999 L 131.07200622558594 -482.9999999999999 L 161.44400024414062 -482.9999999999999 L 161.44400024414062 -476.9999999999999 L 192.55599975585938 -476.9999999999999 L 192.55599975585938 -482.9999999999999 L 223.66700744628906 -482.9999999999999 L 223.66700744628906 -476.9999999999999 L 254.7779998779297 -476.9999999999999 L 254.7779998779297 -482.9999999999999 L 262.1440124511719 -482.9999999999999 L 285.8890075683594 -482.9999999999999 L 285.8890075683594 -476.9999999999999 L 311 -476.9999999999999 L 317 -476.9999999999999 L 317 -454.9999999999999 z" fill="none" stroke="rgb(255,0,0)" stroke-width="0.1mm" />
</svg>