<?xml version="1.0" standalone="no"?>
<!DOCTYPE svg PUBLIC "-//W3C//DTD SVG 1.1//EN"
  "http://www.w3.org/Graphics/SVG/1.1/DTD/svg11.dtd">
<svg width="84mm" height="181.99999999999997mm" viewBox="347 -308.99999999999994 84 181.99999999999997" xmlns="http://www.w3.org/2000/svg" version="1.1">
	<title>svgOutput</title>
	<desc>made with tinkercad</desc>
<path d="M 402 -307.99999999999994 L 402 -301.99999999999994 L 424 -301.99999999999994 L 424 -282.28601074218744 L 430 -282.28601074218744 L 430 -262.1440124511718 L 430 -256.5710144042968 L 424 -256.5710144042968 L 424 -230.8569946289062 L 430 -230.8569946289062 L 430 -205.1430053710937 L 424 -205.1430053710937 L 424 -196.60800170898432 L 424 -180.22399902343747 L 424 -179.42900085449216 L 425.9840087890625 -179.42900085449216 L 430 -179.42900085449216 L 430 -163.8399963378906 L 430 -153.71400451660153 L 424 -153.71400451660153 L 424 -133.99999999999997 L 402 -133.99999999999997 L 402 -131.0720062255859 L 402 -127.99999999999997 L 376 -127.99999999999997 L 376 -131.0720062255859 L 376 -133.99999999999997 L 354 -133.99999999999997 L 354 -153.71400451660153 L 348 -153.71400451660153 L 348 -179.42900085449216 L 354 -179.42900085449216 L 354 -196.60800170898432 L 354 -205.1430053710937 L 348 -205.1430053710937 L 348 -230.8569946289062 L 354 -230.8569946289062 L 354 -256.5710144042968 L 348 -256.5710144042968 L 348 -262.1440124511718 L 348 -282.28601074218744 L 354 -282.28601074218744 L 354 -301.99999999999994 L 376 -301.99999999999994 L 376 -307.99999999999994 L 402 -307.99999999999994 M 415.1189880371094 -172.29699707031247 L 415.4289855957031 -173.24999999999997 L 415.49200439453125 -174.2510070800781 L 415.3039855957031 -175.2359924316406 L 414.87701416015625 -176.14300537109372 L 414.2380065917969 -176.9160003662109 L 413.427001953125 -177.50500488281247 L 412.4949951171875 -177.87399291992185 L 411.5 -177.99999999999997 L 410.5050048828125 -177.87399291992185 L 409.6000061035156 -177.51568603515622 L 409.572998046875 -177.50500488281247 L 408.7619934082031 -176.9160003662109 L 408.12298583984375 -176.14300537109372 L 407.6960144042969 -175.2359924316406 L 407.50799560546875 -174.2510070800781 L 407.5710144042969 -173.24999999999997 L 407.8810119628906 -172.29699707031247 L 408.4179992675781 -171.44999694824216 L 409.14898681640625 -170.76400756835935 L 409.6000061035156 -170.51617431640622 L 410.02801513671875 -170.28100585937497 L 410.9989929199219 -170.03199768066403 L 412.0010070800781 -170.03199768066403 L 412.97198486328125 -170.28100585937497 L 413.85101318359375 -170.76400756835935 L 414.5820007324219 -171.44999694824216 L 414.95098876953125 -172.03199768066403 L 415.1189880371094 -172.29699707031247 z" fill="none" stroke="rgb(255,0,0)" stroke-width="0.001mm" />
</svg>