<?xml version="1.0" standalone="no"?>
<!DOCTYPE svg PUBLIC "-//W3C//DTD SVG 1.1//EN"
  "http://www.w3.org/Graphics/SVG/1.1/DTD/svg11.dtd">
<svg width="282mm" height="181.99999999999997mm" viewBox="26 -293.99999999999994 282 181.99999999999997" xmlns="http://www.w3.org/2000/svg" version="1.1">
	<title>svgOutput</title>
	<desc>made with tinkercad</desc>
<path d="M 275.8890075683594 -292.99999999999994 L 307 -292.99999999999994 L 307 -267.28601074218744 L 301 -267.28601074218744 L 301 -262.1440124511718 L 301 -241.57099914550776 L 307 -241.57099914550776 L 307 -229.37600708007807 L 307 -215.8569946289062 L 301 -215.8569946289062 L 301 -196.60800170898432 L 301 -190.14300537109372 L 307 -190.14300537109372 L 307 -164.42900085449216 L 301 -164.42900085449216 L 301 -163.8399963378906 L 301 -138.71400451660153 L 307 -138.71400451660153 L 307 -131.0720062255859 L 307 -112.99999999999997 L 275.8890075683594 -112.99999999999997 L 275.8890075683594 -118.99999999999997 L 262.1440124511719 -118.99999999999997 L 244.7779998779297 -118.99999999999997 L 244.7779998779297 -112.99999999999997 L 213.66700744628906 -112.99999999999997 L 213.66700744628906 -118.99999999999997 L 182.55599975585938 -118.99999999999997 L 182.55599975585938 -112.99999999999997 L 151.44400024414062 -112.99999999999997 L 151.44400024414062 -118.99999999999997 L 131.07200622558594 -118.99999999999997 L 120.33300018310547 -118.99999999999997 L 120.33300018310547 -112.99999999999997 L 89.22200012207031 -112.99999999999997 L 89.22200012207031 -118.99999999999997 L 58.111000061035156 -118.99999999999997 L 58.111000061035156 -112.99999999999997 L 27 -112.99999999999997 L 27 -122.99999999999997 L 27 -124.99784088134763 L 27 -128.8293304443359 L 27 -131.0720062255859 L 27 -138.71400451660153 L 33 -138.71400451660153 L 33 -164.42900085449216 L 27 -164.42900085449216 L 27 -190.14300537109372 L 33 -190.14300537109372 L 33 -215.8569946289062 L 27 -215.8569946289062 L 27 -241.57099914550776 L 33 -241.57099914550776 L 33 -262.1440124511718 L 33 -267.28601074218744 L 32.768001556396484 -267.28601074218744 L 27 -267.28601074218744 L 27 -292.99999999999994 L 32.768001556396484 -292.99999999999994 L 43.641082763671875 -292.99999999999994 L 46.73997116088867 -292.99999999999994 L 49.152000427246094 -292.99999999999994 L 58.111000061035156 -292.99999999999994 L 58.111000061035156 -286.99999999999994 L 65.53600311279297 -286.99999999999994 L 89.22200012207031 -286.99999999999994 L 89.22200012207031 -292.99999999999994 L 120.33300018310547 -292.99999999999994 L 120.33300018310547 -286.99999999999994 L 131.07200622558594 -286.99999999999994 L 151.44400024414062 -286.99999999999994 L 151.44400024414062 -292.99999999999994 L 182.55599975585938 -292.99999999999994 L 182.55599975585938 -286.99999999999994 L 213.66700744628906 -286.99999999999994 L 213.66700744628906 -292.99999999999994 L 244.7779998779297 -292.99999999999994 L 244.7779998779297 -286.99999999999994 L 262.1440124511719 -286.99999999999994 L 275.8890075683594 -286.99999999999994 L 275.8890075683594 -292.99999999999994 M 266 -217.99999999999994 L 266 -229.37600708007807 L 266 -241.57099914550776 L 266 -262.1440124511718 L 266 -267.28601074218744 L 266 -269.99999999999994 L 265.8680114746094 -271.85000610351557 L 265.4729919433594 -273.66299438476557 L 264.82501220703125 -275.3999938964843 L 263.9360046386719 -277.0280151367187 L 262.82501220703125 -278.5130004882812 L 262.1440124511719 -279.19400024414057 L 261.51300048828125 -279.8250122070312 L 260.02801513671875 -280.9360046386718 L 258.3999938964844 -281.8250122070312 L 256.6629943847656 -282.4729919433593 L 254.85000610351562 -282.8680114746093 L 253 -282.99999999999994 L 244.7779998779297 -282.99999999999994 L 213.66700744628906 -282.99999999999994 L 182.55599975585938 -282.99999999999994 L 131.07200622558594 -282.99999999999994 L 65.53600311279297 -282.99999999999994 L 55 -282.99999999999994 L 53.150001525878906 -282.8680114746093 L 51.33700180053711 -282.4729919433593 L 49.599998474121094 -281.8250122070312 L 49.152000427246094 -281.58035278320307 L 47.97200012207031 -280.9360046386718 L 46.48699951171875 -279.8250122070312 L 45.17499923706055 -278.5130004882812 L 44.06399917602539 -277.0280151367187 L 43.17499923706055 -275.3999938964843 L 42.527000427246094 -273.66299438476557 L 42.13199996948242 -271.85000610351557 L 42 -269.99999999999994 L 42 -262.1440124511718 L 42 -241.57099914550776 L 42 -215.8569946289062 L 42 -190.14300537109372 L 42 -164.42900085449216 L 42 -138.71400451660153 L 42 -135.99999999999997 L 42.13199996948242 -134.14999389648435 L 42.527000427246094 -132.33700561523435 L 42.99891662597656 -131.0720062255859 L 43.17499923706055 -130.6000061035156 L 44.06399917602539 -128.97200012207028 L 45.17499923706055 -127.48699951171872 L 46.48699951171875 -126.17500305175778 L 47.97200012207031 -125.06400299072263 L 49.599998474121094 -124.17500305175778 L 51.33700180053711 -123.52700042724607 L 53.150001525878906 -123.13200378417966 L 55 -122.99999999999997 L 58.111000061035156 -122.99999999999997 L 89.22200012207031 -122.99999999999997 L 120.33300018310547 -122.99999999999997 L 131.07200622558594 -122.99999999999997 L 151.44400024414062 -122.99999999999997 L 182.55599975585938 -122.99999999999997 L 213.66700744628906 -122.99999999999997 L 244.7779998779297 -122.99999999999997 L 253 -122.99999999999997 L 254.85000610351562 -123.13200378417966 L 256.6629943847656 -123.52700042724607 L 258.3999938964844 -124.17500305175778 L 260.02801513671875 -125.06400299072263 L 261.51300048828125 -126.17500305175778 L 262.1440124511719 -126.80599975585935 L 262.82501220703125 -127.48699951171872 L 263.9360046386719 -128.97200012207028 L 264.82501220703125 -130.6000061035156 L 265.0010681152344 -131.0720062255859 L 265.4729919433594 -132.33700561523435 L 265.8680114746094 -134.14999389648435 L 266 -135.99999999999997 L 266 -138.71400451660153 L 266 -163.8399963378906 L 266 -169.16082763671872 L 266 -176.06266784667966 L 266 -180.2847747802734 L 266 -183.10108947753903 L 266 -184.99774169921872 L 266 -186.3111419677734 L 266 -187.19262695312497 L 266 -187.73823547363278 L 266 -187.99999999999997 L 267.9580078125 -188.12800598144528 L 269.8819885253906 -188.51100158691403 L 271.739990234375 -189.1419982910156 L 273.5 -190.0099945068359 L 275.1310119628906 -191.1000061035156 L 276.60699462890625 -192.3930053710937 L 277.8999938964844 -193.86900329589838 L 278.989990234375 -195.49999999999994 L 279.53643798828125 -196.60800170898432 L 279.8580017089844 -197.25999450683588 L 280.489013671875 -199.11799621582026 L 280.87200927734375 -201.042007446289 L 281 -202.99999999999994 L 280.87200927734375 -204.95799255371088 L 280.489013671875 -206.88200378417963 L 279.8580017089844 -208.740005493164 L 278.989990234375 -210.49999999999994 L 277.8999938964844 -212.1309967041015 L 277.145751953125 -212.9920043945312 L 276.60699462890625 -213.6069946289062 L 275.1310119628906 -214.89999389648432 L 273.5 -215.990005493164 L 271.739990234375 -216.85800170898432 L 269.8819885253906 -217.48899841308588 L 267.9580078125 -217.87199401855463 L 266 -217.99999999999994 z" fill="none" stroke="rgb(255,0,0)" stroke-width="0.1mm" />
</svg>