<?xml version="1.0" standalone="no"?>
<!DOCTYPE svg PUBLIC "-//W3C//DTD SVG 1.1//EN"
  "http://www.w3.org/Graphics/SVG/1.1/DTD/svg11.dtd">
<svg width="282mm" height="181.99999999999997mm" viewBox="-383 -90.99999999999999 282 181.99999999999997" xmlns="http://www.w3.org/2000/svg" version="1.1">
	<title>svgOutput</title>
	<desc>made with tinkercad</desc>
<path d="M -102 -12.857000350952145 L -108 -12.857000350952145 L -108 1.1102230246251565e-16 L -108 12.857000350952145 L -102 12.857000350952145 L -102 32.76800155639648 L -102 38.570999145507805 L -108 38.570999145507805 L -108 64.28600311279295 L -102 64.28600311279295 L -102 65.53600311279295 L -102 89.99999999999999 L -131.07200622558594 89.99999999999999 L -133.11099243164062 89.99999999999999 L -133.11099243164062 83.99999999999999 L -164.2220001220703 83.99999999999999 L -164.2220001220703 89.99999999999999 L -195.33299255371094 89.99999999999999 L -195.33299255371094 83.99999999999999 L -196.60800170898438 83.99999999999999 L -226.44400024414062 83.99999999999999 L -226.44400024414062 89.99999999999999 L -257.5559997558594 89.99999999999999 L -257.5559997558594 83.99999999999999 L -262.1440124511719 83.99999999999999 L -288.6669921875 83.99999999999999 L -288.6669921875 89.99999999999999 L -319.77801513671875 89.99999999999999 L -319.77801513671875 83.99999999999999 L -327.67999267578125 83.99999999999999 L -349.6499938964844 83.99999999999999 L -350.8890075683594 83.99999999999999 L -350.8890075683594 89.99999999999999 L -382 89.99999999999999 L -382 83.99999999999999 L -382 64.28600311279295 L -376 64.28600311279295 L -376 38.570999145507805 L -382 38.570999145507805 L -382 12.857000350952145 L -376 12.857000350952145 L -376 1.1102230246251565e-16 L -376 -12.857000350952145 L -382 -12.857000350952145 L -382 -38.570999145507805 L -376 -38.570999145507805 L -376 -64.28600311279295 L -382 -64.28600311279295 L -382 -83.99999999999999 L -382 -89.99999999999999 L -350.8890075683594 -89.99999999999999 L -350.8890075683594 -83.99999999999999 L -344.5657653808594 -83.99999999999999 L -333.9717102050781 -83.99999999999999 L -327.67999267578125 -83.99999999999999 L -319.77801513671875 -83.99999999999999 L -319.77801513671875 -89.99999999999999 L -288.6669921875 -89.99999999999999 L -288.6669921875 -83.99999999999999 L -262.1440124511719 -83.99999999999999 L -257.5559997558594 -83.99999999999999 L -257.5559997558594 -89.99999999999999 L -226.44400024414062 -89.99999999999999 L -226.44400024414062 -83.99999999999999 L -196.60800170898438 -83.99999999999999 L -195.33299255371094 -83.99999999999999 L -195.33299255371094 -89.99999999999999 L -164.2220001220703 -89.99999999999999 L -164.2220001220703 -83.99999999999999 L -133.11099243164062 -83.99999999999999 L -133.11099243164062 -89.99999999999999 L -131.07200622558594 -89.99999999999999 L -102 -89.99999999999999 L -102 -64.28600311279295 L -108 -64.28600311279295 L -108 -38.570999145507805 L -102 -38.570999145507805 L -102 -12.857000350952145 M -174.35000610351562 -45.29999923706054 L -174.52000427246094 -46.594001770019524 L -175.02000427246094 -47.79999923706054 L -175.81399536132812 -48.835998535156236 L -176.85000610351562 -49.63000106811522 L -178.05599975585938 -50.13000106811522 L -179.35000610351562 -50.29999923706053 L -196.60800170898438 -50.29999923706053 L -262.1440124511719 -50.29999923706053 L -327.67999267578125 -50.29999923706053 L -344.6499938964844 -50.29999923706053 L -345.9440002441406 -50.13000106811522 L -347.1499938964844 -49.63000106811522 L -348.1860046386719 -48.835998535156236 L -348.9800109863281 -47.79999923706054 L -349.4800109863281 -46.594001770019524 L -349.6499938964844 -45.29999923706054 L -349.6499938964844 1.1102230246251565e-16 L -349.6499938964844 49.999999999999986 L -349.4800109863281 51.293998718261705 L -348.9800109863281 52.499999999999986 L -348.1860046386719 53.53599929809569 L -347.1499938964844 54.33000183105467 L -345.9440002441406 54.83000183105467 L -344.6499938964844 54.999999999999986 L -327.67999267578125 54.999999999999986 L -262.1440124511719 54.999999999999986 L -196.60800170898438 54.999999999999986 L -179.35000610351562 54.999999999999986 L -178.05599975585938 54.83000183105467 L -176.85000610351562 54.33000183105467 L -175.81399536132812 53.53599929809569 L -175.02000427246094 52.499999999999986 L -174.52000427246094 51.293998718261705 L -174.35000610351562 49.999999999999986 L -174.35000610351562 49.15200042724608 L -174.35000610351562 32.76800155639648 L -174.35000610351562 1.1102230246251565e-16 L -174.35000610351562 -1.7643886804580684 L -174.35000610351562 -5.387541770935058 L -174.35000610351562 -9.518434524536131 L -174.35000610351562 -14.994790077209469 L -174.35000610351562 -23.703104019165036 L -174.35000610351562 -32.76800155639648 L -174.35000610351562 -45.29999923706054 M -164.14100646972656 -0.8880000114440915 L -164.2574462890625 1.1102230246251565e-16 L -164.26400756835938 0.05000000074505816 L -164.14100646972656 0.9879999756813048 L -163.83999633789062 1.7155551910400386 L -163.7790069580078 1.8630000352859493 L -163.2030029296875 2.6129999160766597 L -162.45199584960938 3.188999891281127 L -161.5780029296875 3.5510001182556143 L -160.63900756835938 3.6749999523162833 L -159.7010040283203 3.5510001182556143 L -158.82699584960938 3.188999891281127 L -158.0760040283203 2.6129999160766597 L -157.5 1.8630000352859493 L -157.13800048828125 0.9879999756813048 L -157.01400756835938 0.05000000074505816 L -157.02061462402344 1.1102230246251565e-16 L -157.13800048828125 -0.8880000114440915 L -157.5 -1.7630000114440914 L -158.0760040283203 -2.5130000114440914 L -158.82699584960938 -3.0889999866485587 L -159.7010040283203 -3.450999975204467 L -160.63900756835938 -3.575000047683715 L -161.5780029296875 -3.450999975204467 L -162.45199584960938 -3.0889999866485587 L -163.2030029296875 -2.5130000114440914 L -163.7790069580078 -1.7630000114440914 L -164.14100646972656 -0.8880000114440915 M -118.8270034790039 34.61800003051757 L -119.71802520751953 32.76800155639648 L -120.21700286865234 31.73200035095214 L -121.96499633789062 29.04700088500976 L -124.04100036621094 26.607999801635735 L -126.41300201416016 24.454000473022454 L -129.0399932861328 22.62100028991699 L -131.07200622558594 21.56135559082031 L -131.8800048828125 21.139999389648434 L -134.88699340820312 20.03300094604492 L -138.00999450683594 19.319999694824215 L -141.19900512695312 19.013000488281246 L -144.4010009765625 19.115999221801754 L -147.56300354003906 19.627000808715817 L -150.63400268554688 20.53800010681152 L -153.56300354003906 21.834999084472653 L -156.30299377441406 23.49600028991699 L -158.80799865722656 25.49300003051757 L -161.03599548339844 27.794000625610344 L -162.95199584960938 30.361999511718743 L -163.83999633789062 31.938594818115227 L -164.30715942382812 32.76800155639648 L -164.5240020751953 33.15299987792968 L -165.7259979248047 36.12200164794921 L -166.53900146484375 39.22100067138671 L -166.94900512695312 42.397998809814446 L -166.94900512695312 45.60200119018554 L -166.53900146484375 48.77899932861327 L -166.44114685058594 49.15200042724608 L -165.7259979248047 51.87799835205077 L -164.5240020751953 54.8470001220703 L -163.83999633789062 56.06140518188475 L -162.95199584960938 57.638000488281236 L -161.03599548339844 60.20600128173827 L -158.80799865722656 62.50699996948241 L -156.30299377441406 64.50399780273436 L -154.60060119628906 65.53600311279295 L -153.56300354003906 66.16500091552733 L -150.63400268554688 67.46199798583983 L -147.56300354003906 68.3730010986328 L -144.4010009765625 68.88500213623045 L -141.19900512695312 68.98699951171874 L -138.00999450683594 68.68000030517577 L -134.88699340820312 67.96700286865233 L -131.8800048828125 66.86000061035155 L -131.07200622558594 66.43864440917967 L -129.341064453125 65.53600311279295 L -129.0399932861328 65.37899780273436 L -126.41300201416016 63.54600143432616 L -124.04100036621094 61.39199829101561 L -121.96499633789062 58.95299911499022 L -120.21700286865234 56.26800155639647 L -118.8270034790039 53.38199996948241 L -117.81800079345703 50.34099960327147 L -117.20500183105469 47.1969985961914 L -117 43.99999999999999 L -117.20500183105469 40.80300140380859 L -117.81800079345703 37.65900039672851 L -118.8270034790039 34.61800003051757 z" fill="none" stroke="rgb(255,0,0)" stroke-width="0.1mm" />
</svg>