<?xml version="1.0" standalone="no"?>
<!DOCTYPE svg PUBLIC "-//W3C//DTD SVG 1.1//EN"
  "http://www.w3.org/Graphics/SVG/1.1/DTD/svg11.dtd">
<svg width="282mm" height="83.99999999999994mm" viewBox="31 -391.9999999999999 282 83.99999999999994" xmlns="http://www.w3.org/2000/svg" version="1.1">
	<title>svgOutput</title>
	<desc>made with tinkercad</desc>
<path d="M 312 -314.99999999999994 L 306 -314.99999999999994 L 280.8890075683594 -314.99999999999994 L 280.8890075683594 -308.99999999999994 L 262.1440124511719 -308.99999999999994 L 249.7779998779297 -308.99999999999994 L 249.7779998779297 -314.99999999999994 L 218.66700744628906 -314.99999999999994 L 218.66700744628906 -308.99999999999994 L 187.55599975585938 -308.99999999999994 L 187.55599975585938 -314.99999999999994 L 156.44400024414062 -314.99999999999994 L 156.44400024414062 -308.99999999999994 L 131.07200622558594 -308.99999999999994 L 125.33300018310547 -308.99999999999994 L 125.33300018310547 -314.99999999999994 L 94.22200012207031 -314.99999999999994 L 94.22200012207031 -308.99999999999994 L 63.111000061035156 -308.99999999999994 L 63.111000061035156 -314.99999999999994 L 38 -314.99999999999994 L 32 -314.99999999999994 L 32 -336.99999999999994 L 38 -336.99999999999994 L 38 -362.99999999999994 L 32 -362.99999999999994 L 32 -384.9999999999999 L 38 -384.9999999999999 L 63.111000061035156 -384.9999999999999 L 63.111000061035156 -390.9999999999999 L 94.22200012207031 -390.9999999999999 L 94.22200012207031 -384.9999999999999 L 125.33300018310547 -384.9999999999999 L 125.33300018310547 -390.9999999999999 L 131.07200622558594 -390.9999999999999 L 156.44400024414062 -390.9999999999999 L 156.44400024414062 -384.9999999999999 L 187.55599975585938 -384.9999999999999 L 187.55599975585938 -390.9999999999999 L 218.66700744628906 -390.9999999999999 L 218.66700744628906 -384.9999999999999 L 249.7779998779297 -384.9999999999999 L 249.7779998779297 -390.9999999999999 L 262.1440124511719 -390.9999999999999 L 280.8890075683594 -390.9999999999999 L 280.8890075683594 -384.9999999999999 L 312 -384.9999999999999 L 312 -362.99999999999994 L 306 -362.99999999999994 L 306 -336.99999999999994 L 312 -336.99999999999994 L 312 -314.99999999999994 z" fill="none" stroke="rgb(255,0,0)" stroke-width="0.001mm" />
</svg>