<?xml version="1.0" standalone="no"?>
<!DOCTYPE svg PUBLIC "-//W3C//DTD SVG 1.1//EN"
  "http://www.w3.org/Graphics/SVG/1.1/DTD/svg11.dtd">
<svg width="282mm" height="83.99999999999997mm" viewBox="28 138.99999999999997 282 83.99999999999997" xmlns="http://www.w3.org/2000/svg" version="1.1">
	<title>svgOutput</title>
	<desc>made with tinkercad</desc>
<path d="M 309 167.99999999999997 L 303 167.99999999999997 L 303 193.99999999999994 L 309 193.99999999999994 L 309 215.99999999999994 L 277.8890075683594 215.99999999999994 L 277.8890075683594 221.99999999999994 L 262.1440124511719 221.99999999999994 L 259 221.99999999999994 L 246.7779998779297 221.99999999999994 L 246.7779998779297 215.99999999999994 L 215.66700744628906 215.99999999999994 L 215.66700744628906 221.99999999999994 L 184.55599975585938 221.99999999999994 L 184.55599975585938 215.99999999999994 L 153.44400024414062 215.99999999999994 L 153.44400024414062 221.99999999999994 L 131.07200622558594 221.99999999999994 L 122.33300018310547 221.99999999999994 L 122.33300018310547 215.99999999999994 L 91.22200012207031 215.99999999999994 L 91.22200012207031 221.99999999999994 L 65.53600311279297 221.99999999999994 L 60.111000061035156 221.99999999999994 L 60.111000061035156 215.99999999999994 L 35 215.99999999999994 L 29 215.99999999999994 L 29 193.99999999999994 L 35 193.99999999999994 L 35 167.99999999999997 L 29 167.99999999999997 L 29 145.99999999999997 L 35 145.99999999999997 L 60.111000061035156 145.99999999999997 L 60.111000061035156 139.99999999999997 L 65.53600311279297 139.99999999999997 L 91.22200012207031 139.99999999999997 L 91.22200012207031 145.99999999999997 L 98.30400085449219 145.99999999999997 L 122.33300018310547 145.99999999999997 L 122.33300018310547 139.99999999999997 L 131.07200622558594 139.99999999999997 L 153.44400024414062 139.99999999999997 L 153.44400024414062 145.99999999999997 L 184.55599975585938 145.99999999999997 L 184.55599975585938 139.99999999999997 L 215.66700744628906 139.99999999999997 L 215.66700744628906 145.99999999999997 L 246.7779998779297 145.99999999999997 L 246.7779998779297 139.99999999999997 L 262.1440124511719 139.99999999999997 L 277.8890075683594 139.99999999999997 L 277.8890075683594 145.99999999999997 L 303 145.99999999999997 L 309 145.99999999999997 L 309 167.99999999999997 M 113 179.7359924316406 L 112.6729965209961 179.77900695800778 L 112.36799621582031 179.90499877929685 L 112.10600280761719 180.10600280761716 L 112.01547241210938 180.22399902343747 L 111.90499877929688 180.36799621582028 L 111.77899932861328 180.6730041503906 L 111.73500061035156 180.99999999999997 L 111.77899932861328 181.32699584960935 L 111.90499877929688 181.63200378417966 L 112.10600280761719 181.89399719238278 L 112.36799621582031 182.0950012207031 L 112.63999938964844 182.20736694335935 L 112.6729965209961 182.22099304199216 L 113 182.2649993896484 L 113.3270034790039 182.22099304199216 L 113.63200378417969 182.0950012207031 L 113.89399719238281 181.89399719238278 L 114.09500122070312 181.63200378417966 L 114.22100067138672 181.32699584960935 L 114.26399993896484 180.99999999999997 L 114.22100067138672 180.6730041503906 L 114.09500122070312 180.36799621582028 L 113.98452758789062 180.22399902343747 L 113.89399719238281 180.10600280761716 L 113.63200378417969 179.90499877929685 L 113.3270034790039 179.77900695800778 L 113 179.7359924316406 M 73.89399719238281 180.10600280761716 L 73.63200378417969 179.90499877929685 L 73.3270034790039 179.77900695800778 L 73 179.7359924316406 L 72.6729965209961 179.77900695800778 L 72.36799621582031 179.90499877929685 L 72.10600280761719 180.10600280761716 L 72.01547241210938 180.22399902343747 L 71.90499877929688 180.36799621582028 L 71.77899932861328 180.6730041503906 L 71.73500061035156 180.99999999999997 L 71.77899932861328 181.32699584960935 L 71.90499877929688 181.63200378417966 L 72.10600280761719 181.89399719238278 L 72.36799621582031 182.0950012207031 L 72.6729965209961 182.22099304199216 L 73 182.2649993896484 L 73.3270034790039 182.22099304199216 L 73.63200378417969 182.0950012207031 L 73.72799682617188 182.0213470458984 L 73.89399719238281 181.89399719238278 L 74.09500122070312 181.63200378417966 L 74.22100067138672 181.32699584960935 L 74.26399993896484 180.99999999999997 L 74.22100067138672 180.6730041503906 L 74.09500122070312 180.36799621582028 L 73.98452758789062 180.22399902343747 L 73.89399719238281 180.10600280761716 M 230.1999969482422 187.75599670410153 L 246.7779998779297 187.75599670410153 L 259 187.75599670410153 L 259 174.2460021972656 L 246.7779998779297 174.2460021972656 L 230.1999969482422 174.2460021972656 L 230.1999969482422 187.75599670410153 M 107 171.19999694824216 L 98.30400085449219 171.19999694824216 L 79 171.19999694824216 L 79 180.22399902343747 L 79 186.7615814208984 L 79 188.4160003662109 L 79 190.80000305175778 L 81.91999816894531 190.80000305175778 L 98.30400085449219 190.80000305175778 L 107 190.80000305175778 L 107 188.4160003662109 L 107 184.32000732421872 L 107 180.22399902343747 L 107 177.16522216796872 L 107 171.19999694824216 z" fill="none" stroke="rgb(255,0,0)" stroke-width="0.001mm" />
</svg>