<?xml version="1.0" standalone="no"?>
<!DOCTYPE svg PUBLIC "-//W3C//DTD SVG 1.1//EN"
  "http://www.w3.org/Graphics/SVG/1.1/DTD/svg11.dtd">
<svg width="84mm" height="181.99999999999994mm" viewBox="350 -57.999999999999986 84 181.99999999999994" xmlns="http://www.w3.org/2000/svg" version="1.1">
	<title>svgOutput</title>
	<desc>made with tinkercad</desc>
<path d="M 351 -31.285999298095696 L 357 -31.285999298095696 L 357 -50.999999999999986 L 379 -50.999999999999986 L 379 -56.999999999999986 L 405 -56.999999999999986 L 405 -50.999999999999986 L 427 -50.999999999999986 L 427 -31.285999298095696 L 433 -31.285999298095696 L 433 -5.571000099182128 L 427 -5.571000099182128 L 427 1.1102230246251565e-16 L 427 20.142999649047848 L 433 20.142999649047848 L 433 45.85699844360351 L 427 45.85699844360351 L 427 65.53600311279295 L 427 71.5709991455078 L 433 71.5709991455078 L 433 97.28600311279294 L 427 97.28600311279294 L 427 116.99999999999997 L 405 116.99999999999997 L 405 122.99999999999997 L 379 122.99999999999997 L 379 116.99999999999997 L 357 116.99999999999997 L 357 97.28600311279294 L 351 97.28600311279294 L 351 71.5709991455078 L 357 71.5709991455078 L 357 65.53600311279295 L 357 45.85699844360351 L 351 45.85699844360351 L 351 20.142999649047848 L 357 20.142999649047848 L 357 1.1102230246251565e-16 L 357 -5.571000099182128 L 351 -5.571000099182128 L 351 -31.285999298095696 z" fill="none" stroke="rgb(255,0,0)" stroke-width="0.1mm" />
</svg>